<?xml version="1.0" standalone="no"?>
<!DOCTYPE svg PUBLIC "-//W3C//DTD SVG 20010904//EN"
 "http://www.w3.org/TR/2001/REC-SVG-20010904/DTD/svg10.dtd">
<svg version="1.0" xmlns="http://www.w3.org/2000/svg"
 width="1920.000000pt" height="1080.000000pt" viewBox="0 0 1920.000000 1080.000000"
 preserveAspectRatio="xMidYMid meet">
<metadata>
Created by potrace 1.16, written by Peter Selinger 2001-2019
</metadata>
<g transform="translate(0.000000,1080.000000) scale(0.100000,-0.100000)"
fill="#000000" stroke="none">
<path d="M0 10705 l0 -86 53 7 c28 4 54 10 57 13 3 3 17 12 33 20 17 9 23 17
16 22 -17 10 -3 26 28 33 16 4 46 16 68 26 22 11 58 26 80 34 38 14 29 15
-147 15 l-188 1 0 -85z"/>
<path d="M1039 10723 c0 -38 -2 -102 -4 -143 -3 -41 -9 -158 -15 -260 -6 -102
-12 -230 -15 -285 -7 -129 -33 -948 -41 -1260 -3 -132 -10 -377 -16 -545 -21
-586 -21 -690 -5 -690 20 0 317 55 354 66 6 1 14 25 16 51 l3 48 2 -49 2 -49
43 7 c23 4 74 13 112 20 39 8 97 19 130 25 117 22 105 10 105 110 0 106 8 151
26 151 16 0 19 -36 15 -146 -2 -47 1 -74 9 -79 6 -4 44 0 83 8 40 9 115 23
167 33 52 9 102 19 110 24 11 5 16 33 20 118 3 68 10 116 17 123 7 7 15 11 17
8 3 -2 6 -55 8 -116 2 -62 6 -115 9 -118 3 -3 28 -1 55 5 27 5 74 15 104 21
30 6 58 16 61 21 8 13 15 294 10 407 -1 38 12 37 -121 6 -95 -22 -192 -43
-305 -65 -55 -11 -122 -25 -150 -30 -27 -6 -59 -13 -70 -15 -11 -2 -40 -9 -65
-15 -25 -6 -76 -17 -115 -25 -38 -7 -117 -23 -175 -35 -206 -42 -261 -48 -267
-33 -8 19 14 853 22 874 4 12 63 33 193 69 185 51 239 66 338 94 33 9 56 11
67 4 11 -6 17 -5 17 1 0 14 87 41 132 41 21 0 38 4 38 9 0 5 26 15 58 21 31 6
82 19 112 29 30 11 80 24 110 31 30 6 69 15 85 20 17 5 47 12 67 15 41 8 63
27 55 49 -3 8 -2 200 3 428 8 375 6 451 -14 419 -4 -6 -18 -11 -30 -11 -13 0
-28 -6 -34 -13 -10 -12 -36 -813 -26 -828 5 -9 -43 -29 -69 -29 l-22 0 7 152
c3 84 8 262 10 395 l4 242 -27 -6 c-15 -3 -63 -17 -105 -32 -67 -23 -79 -31
-85 -55 -4 -15 -8 -116 -9 -224 0 -108 -2 -219 -4 -247 -2 -27 -5 -102 -6
-165 -1 -63 -7 -121 -12 -127 -6 -7 -24 -13 -40 -13 l-30 0 6 328 c4 180 9
362 12 406 l6 79 -29 -7 c-15 -4 -79 -23 -141 -43 l-113 -35 1 -57 c1 -31 -3
-208 -8 -394 -8 -290 -12 -341 -26 -355 -10 -10 -19 -12 -24 -7 -8 10 -1 378
12 658 6 113 4 137 -7 137 -13 0 -69 -16 -207 -60 l-55 -17 -12 -388 c-9 -254
-17 -393 -24 -399 -12 -12 -9 95 12 534 6 118 10 251 10 294 -1 78 4 96 11 44
2 -15 6 -30 10 -33 5 -5 235 67 303 95 79 33 75 28 75 98 0 56 6 91 26 161 3
9 8 11 14 5 6 -6 10 -58 11 -118 1 -96 2 -107 17 -100 9 4 36 12 60 18 23 6
42 14 42 18 0 5 8 8 18 8 19 0 110 27 190 57 42 16 42 16 42 67 0 62 24 194
38 208 11 11 24 -117 19 -190 -2 -24 0 -45 4 -47 8 -5 190 52 201 63 14 14 35
512 22 512 -8 0 -81 -25 -119 -40 -25 -10 -242 -86 -390 -135 -125 -42 -270
-93 -300 -105 -11 -5 -90 -32 -175 -60 -85 -28 -164 -56 -175 -60 -11 -5 -38
-14 -59 -19 l-39 -10 6 259 5 260 -94 0 -94 0 -1 -67z"/>
<path d="M2666 10781 c-6 -9 -31 -1171 -41 -1871 -3 -223 -10 -504 -15 -625
-9 -208 -13 -435 -7 -435 1 0 40 7 87 16 47 8 101 18 120 21 19 3 40 9 46 14
6 5 27 9 45 8 44 -1 121 11 135 22 10 9 17 56 16 111 -1 15 4 30 10 34 7 4 9
-17 7 -67 l-4 -74 35 1 c19 0 76 8 125 18 50 9 117 21 150 26 33 5 83 15 111
21 l52 12 7 124 c5 88 11 128 22 138 36 37 41 17 35 -140 l-5 -120 59 3 c33 2
68 7 79 12 11 6 54 14 95 20 172 22 232 33 236 44 2 6 7 63 12 126 10 128 25
181 45 161 8 -8 12 -54 12 -147 0 -152 -7 -142 90 -123 28 5 94 15 148 23 54
8 100 16 102 18 5 5 22 318 23 401 l0 77 -52 -6 c-28 -3 -63 -9 -78 -14 -15
-5 -59 -12 -98 -16 -39 -3 -73 -11 -76 -15 -3 -5 -18 -9 -33 -9 -16 0 -34 -7
-41 -15 -10 -12 -16 -13 -26 -4 -8 7 -27 9 -46 5 -41 -8 -175 -30 -288 -46
-47 -7 -94 -16 -105 -21 -11 -5 -60 -11 -108 -14 -49 -4 -99 -10 -112 -15 -13
-5 -52 -12 -87 -15 -34 -4 -70 -9 -78 -13 -17 -7 -119 -24 -240 -41 -47 -7
-92 -16 -100 -21 -28 -14 -122 -23 -129 -12 -3 6 -1 203 6 439 12 466 18 591
27 600 3 3 25 9 48 14 34 6 46 5 55 -8 14 -18 21 -17 173 22 58 14 123 30 145
35 22 5 93 20 159 34 65 14 132 26 147 26 16 0 37 4 47 10 24 14 222 51 233
44 6 -3 15 -1 22 4 11 8 98 29 222 52 139 26 435 89 443 94 5 3 10 72 12 153
1 82 5 209 9 283 4 74 9 217 10 316 l2 182 -68 -15 c-37 -8 -83 -17 -101 -20
-23 -4 -33 -12 -36 -27 -7 -36 -27 -866 -21 -875 4 -7 -74 -31 -100 -31 -5 0
2 260 16 594 6 137 7 252 2 257 -7 7 -89 -9 -158 -31 -16 -5 -49 -12 -73 -16
-23 -4 -44 -10 -47 -13 -4 -7 -11 -205 -21 -592 -3 -130 -9 -241 -13 -246 -3
-6 -22 -13 -41 -16 -19 -3 -44 -7 -55 -9 -19 -3 -20 3 -23 87 -1 50 4 234 11
410 8 176 12 322 11 324 -5 5 -262 -44 -270 -52 -7 -7 -34 -601 -34 -754 0
-71 0 -71 -31 -82 -18 -6 -41 -11 -52 -11 -22 0 -22 25 2 640 3 91 5 179 3
197 -3 30 -4 31 -35 21 -52 -16 -148 -39 -212 -49 -33 -6 -65 -16 -72 -22 -11
-11 -19 -163 -39 -689 -3 -93 -10 -168 -15 -168 -11 0 -11 79 1 387 5 136 12
334 15 438 6 211 22 326 24 173 1 -102 -4 -99 106 -67 116 33 207 56 346 85
26 6 27 8 33 107 4 56 9 123 12 150 l6 47 -335 0 c-259 0 -336 -3 -340 -12 -4
-10 -6 -10 -6 0 -1 9 -36 12 -140 12 -77 0 -142 -4 -145 -9z"/>
<path d="M3684 10653 c2 -76 4 -139 5 -139 1 -1 18 2 39 7 168 41 268 64 347
82 l60 14 7 54 c3 30 6 69 7 87 l1 32 -234 0 -235 0 3 -137z"/>
<path d="M4212 10718 c2 -58 6 -73 18 -71 16 2 107 21 220 47 104 24 116 30
115 62 l0 29 -178 3 -178 2 3 -72z"/>
<path d="M4796 10698 c-8 -132 -24 -729 -31 -1158 -3 -201 -8 -414 -10 -475
-21 -455 -25 -560 -31 -709 l-7 -169 73 7 c40 3 76 8 80 11 6 4 25 389 22 455
-10 226 18 1085 36 1101 10 9 78 26 157 39 39 6 122 22 185 35 281 58 516 91
536 75 6 -5 15 -6 20 -1 9 8 160 29 214 29 30 1 105 8 225 22 50 6 196 19 326
29 130 10 241 21 248 25 23 14 12 36 -19 36 -16 0 -30 5 -30 10 0 6 12 10 28
10 l27 0 3 253 c1 138 5 300 8 360 l6 107 -180 0 -179 0 -5 -43 c-3 -24 -6
-110 -7 -193 -1 -82 -6 -230 -12 -328 -5 -98 -7 -181 -4 -184 3 -4 21 -5 40
-4 20 2 35 -2 35 -8 0 -6 -16 -10 -37 -9 -21 1 -72 -1 -113 -5 -64 -7 -72 -6
-59 6 18 14 22 71 36 551 l6 217 -156 0 -155 0 -6 -72 c-3 -40 -11 -221 -16
-403 -6 -181 -14 -333 -18 -337 -5 -5 -40 -9 -78 -11 l-69 -2 3 145 c2 80 5
170 7 201 2 31 7 152 11 268 l7 211 -165 0 -166 0 -6 -107 c-3 -60 -9 -252
-13 -428 -4 -176 -7 -324 -7 -330 -1 -11 -40 -23 -85 -24 l-34 -1 6 176 c4 96
10 297 14 445 l6 269 -114 0 c-63 -1 -134 -5 -159 -11 -102 -22 -120 -23 -120
-5 0 14 -17 16 -134 16 l-134 0 -6 -92z"/>
<path d="M7192 10463 c-17 -470 -16 -747 2 -762 10 -8 12 -20 7 -39 -4 -15 -4
-47 1 -72 8 -42 6 -100 -8 -212 -7 -50 0 -60 22 -30 9 11 13 51 14 122 0 201
22 635 32 641 5 4 11 49 12 100 2 52 7 203 11 337 l8 242 -44 0 -45 0 -12
-327z"/>
<path d="M7426 10738 c-4 -44 -19 -522 -18 -580 1 -10 -3 -20 -9 -23 -5 -4 -9
-13 -9 -21 0 -15 97 -14 475 2 256 12 377 11 382 -3 4 -10 8 -9 20 2 13 14 85
19 213 16 19 0 114 0 210 1 96 1 186 1 200 2 122 0 507 -18 516 -26 15 -11 92
1 101 16 14 21 8 41 -12 46 -19 6 -20 13 -17 200 1 107 5 246 8 308 l6 112
-220 0 c-220 0 -220 0 -225 -22 -3 -13 -9 -148 -13 -300 l-7 -278 -32 -6 c-18
-3 -43 -4 -56 -2 l-24 3 4 303 4 302 -172 0 -171 0 0 -32 c-2 -147 -20 -570
-25 -578 -3 -5 -38 -10 -77 -10 l-71 0 7 310 7 310 -175 0 -176 0 0 -82 c0
-169 -23 -543 -34 -551 -6 -4 -31 -6 -56 -5 l-45 3 3 275 c1 151 5 294 8 318
l5 42 -219 0 -219 0 -8 -292 c-5 -161 -9 -309 -9 -328 -1 -28 -5 -35 -21 -35
-17 0 -21 8 -24 45 -3 42 14 453 24 563 4 44 3 47 -20 47 -21 0 -24 -5 -29
-52z"/>
<path d="M9927 10683 c-4 -58 -7 -200 -7 -315 0 -178 -2 -208 -15 -208 -10 0
-15 -10 -15 -31 0 -23 4 -30 18 -28 9 1 46 -1 82 -4 36 -4 193 -9 350 -13 157
-3 330 -9 385 -14 55 -4 161 -11 235 -14 74 -3 150 -10 169 -16 19 -5 37 -7
41 -5 8 5 191 -8 335 -25 123 -13 485 -50 499 -50 8 0 11 116 12 415 l0 415
-33 0 -33 0 -2 -382 c-2 -214 1 -386 6 -389 11 -8 -31 -32 -43 -25 -5 3 -6
183 -3 401 l5 395 -217 0 -216 0 -1 -187 c-1 -104 -3 -228 -5 -278 -2 -49 -4
-132 -4 -182 l0 -93 -55 0 -55 0 0 370 0 370 -170 0 -170 0 -1 -237 c-1 -131
-4 -287 -8 -348 l-6 -110 -56 -3 c-30 -2 -67 2 -82 7 l-27 11 6 340 7 340
-180 0 -180 0 -6 -157 c-4 -87 -7 -235 -7 -330 0 -95 -4 -174 -9 -178 -5 -3
-34 -3 -63 1 l-53 6 3 329 4 329 -215 0 -214 0 -6 -107z"/>
<path d="M12126 10773 c-3 -10 -4 -171 -2 -359 3 -187 0 -347 -4 -354 -5 -8
-5 -19 -1 -25 15 -18 22 -106 21 -246 -1 -78 3 -139 8 -143 18 -11 37 26 38
73 1 25 4 57 8 71 9 37 25 522 26 778 l0 222 -44 0 c-34 0 -46 -4 -50 -17z"/>
<path d="M12515 10663 c3 -71 10 -153 16 -183 6 -30 12 -64 14 -75 3 -15 13
-21 37 -21 18 -1 69 -7 113 -13 44 -7 101 -15 128 -18 l47 -6 0 132 c0 125 -1
131 -20 131 -12 0 -53 6 -93 14 -40 8 -91 18 -115 21 -44 7 -63 28 -44 47 8 8
36 7 99 -5 48 -9 107 -19 131 -22 l42 -7 0 66 0 66 -180 0 -181 0 6 -127z"/>
<path d="M13740 10756 c0 -30 3 -34 33 -39 41 -6 207 -46 382 -91 55 -14 106
-24 113 -21 8 3 12 32 12 95 l0 90 -270 0 -270 0 0 -34z"/>
<path d="M14297 10763 c10 -34 10 -1112 0 -1136 -3 -9 -12 -14 -19 -12 -9 4
-13 27 -11 78 1 62 4 713 3 818 0 34 -2 37 -37 42 -40 6 -189 39 -258 56 -22
6 -50 11 -62 11 l-21 0 -2 -452 c0 -248 -3 -455 -7 -461 -5 -9 -100 -3 -110 7
-2 2 -4 204 -3 448 l1 445 -58 12 c-32 6 -87 18 -123 25 -36 8 -80 17 -97 21
l-33 8 -2 -249 c0 -137 -2 -253 -3 -259 -2 -5 -3 -95 -4 -199 l-1 -188 -47 7
c-27 3 -58 9 -70 12 l-23 5 0 359 0 358 -37 6 c-21 3 -56 10 -78 15 -22 5 -65
14 -95 20 -30 5 -65 12 -76 16 -28 8 -34 -15 -34 -144 0 -120 -10 -110 142
-138 115 -21 105 6 98 -274 l-5 -195 -25 2 c-43 2 -173 23 -210 32 -19 5 -93
17 -165 26 -71 9 -150 20 -175 25 -25 5 -57 12 -72 15 l-28 5 0 220 c0 189 -2
220 -15 220 -8 0 -15 8 -15 17 0 10 -3 13 -9 8 -7 -8 -24 -504 -17 -505 34 -9
218 -34 326 -45 80 -9 161 -20 180 -24 19 -5 91 -17 160 -27 69 -10 128 -21
131 -26 3 -5 32 -11 64 -13 31 -3 76 -10 99 -16 22 -6 60 -12 83 -13 22 -1 48
-7 56 -14 8 -7 21 -10 30 -6 8 3 44 -2 79 -10 34 -8 99 -20 143 -26 44 -6 109
-17 145 -26 36 -8 92 -21 125 -29 33 -7 106 -25 162 -39 137 -35 153 -34 153
5 0 20 4 29 13 27 6 -3 12 -11 12 -19 0 -8 10 -15 23 -17 26 -4 25 33 22 -617
-2 -549 1 -499 -30 -504 -23 -3 -24 -4 -5 -12 16 -6 14 -8 -13 -8 -20 -1 -31
3 -27 9 10 16 -32 27 -127 35 -49 4 -90 10 -93 15 -3 4 -45 11 -95 15 -50 4
-92 11 -95 15 -3 5 -27 9 -53 9 -26 0 -72 5 -102 11 -128 24 -124 24 -139 -3
-7 -14 -24 -30 -38 -36 -36 -16 -41 -13 -14 9 l23 20 -36 0 c-20 0 -36 5 -36
10 0 6 9 10 21 10 11 0 18 4 15 9 -3 5 -15 7 -26 4 -22 -6 -28 12 -7 20 23 10
-42 7 -67 -2 -18 -7 -28 -6 -36 5 -7 8 -30 14 -51 14 -21 0 -41 5 -45 11 -4 7
-24 9 -56 5 -36 -5 -48 -4 -43 4 5 8 -8 11 -43 9 -30 -2 -57 2 -66 10 -11 9
-30 11 -61 7 -45 -7 -50 -14 -47 -58 1 -10 -5 -18 -13 -18 -18 0 -45 38 -39
55 3 7 -8 18 -25 25 -17 7 -31 16 -31 20 0 4 -48 11 -107 15 -60 4 -112 10
-118 15 -5 4 -50 10 -100 14 -49 4 -107 11 -127 15 -21 5 -38 8 -38 7 0 0 -3
-105 -7 -231 -5 -190 -3 -232 8 -241 8 -6 91 -19 184 -28 94 -10 192 -22 218
-27 26 -5 66 -9 87 -9 l40 0 0 86 c0 47 5 117 11 155 8 54 8 73 -2 85 -14 17
-6 29 14 21 32 -12 48 -75 54 -217 5 -114 9 -140 22 -145 31 -13 502 -67 510
-60 3 4 7 43 8 88 6 167 10 227 16 234 4 3 7 14 7 23 0 11 9 16 27 15 21 0 28
-5 28 -20 0 -17 8 -21 50 -25 l50 -5 -47 -7 c-26 -4 -54 -5 -63 -2 -13 5 -14
-10 -10 -117 3 -68 8 -143 11 -165 5 -40 6 -42 47 -47 138 -20 264 -39 347
-53 52 -9 109 -17 125 -17 l30 -2 3 95 c1 52 5 102 8 110 12 33 24 -18 24
-106 0 -56 4 -94 12 -102 7 -7 31 -12 55 -12 l43 0 0 63 c0 58 12 99 25 86 3
-3 8 -37 10 -75 3 -37 11 -74 18 -81 8 -8 45 -17 84 -20 64 -5 70 -4 75 14 3
11 2 129 -1 264 -7 289 -6 685 3 964 3 110 8 507 11 883 l6 682 -181 0 -180 0
7 -27z"/>
<path d="M14892 10628 l3 -162 65 -18 c36 -10 97 -27 135 -38 39 -11 73 -20
76 -20 3 0 9 57 13 128 4 70 11 143 15 162 l8 35 16 -36 c11 -25 17 -75 19
-175 3 -130 4 -139 23 -142 11 -2 29 -7 40 -12 11 -5 56 -18 100 -30 44 -12
91 -25 105 -30 91 -30 172 -52 177 -47 3 4 7 39 9 79 5 117 15 218 22 218 27
-1 32 -24 39 -168 3 -84 10 -155 15 -158 5 -4 53 -19 106 -34 53 -16 142 -44
197 -63 157 -55 145 -53 145 -15 0 59 13 138 21 133 4 -3 8 -248 8 -545 1
-508 0 -540 -17 -540 -16 0 -17 26 -13 433 l3 434 -28 11 c-25 10 -109 36
-246 75 -21 6 -39 9 -42 6 -2 -2 -6 -197 -9 -432 -3 -236 -7 -430 -9 -433 -8
-7 -109 27 -104 35 4 6 10 740 7 812 -1 12 -35 26 -127 54 -69 20 -127 35
-129 33 -2 -2 -5 -190 -6 -417 -1 -302 -4 -413 -12 -416 -7 -3 -37 4 -67 14
l-55 18 0 79 c0 43 2 231 4 417 2 188 0 342 -5 346 -5 5 -38 16 -74 25 -36 10
-84 24 -108 32 -77 25 -82 23 -82 -49 0 -63 0 -63 35 -80 20 -9 44 -17 54 -17
10 0 24 -7 31 -15 18 -22 -11 -30 -65 -16 -24 6 -46 11 -49 11 -3 0 -6 -146
-8 -324 -2 -178 -6 -327 -10 -331 -4 -4 -24 -3 -45 2 l-38 9 -1 339 c-1 323
-2 339 -20 341 -11 1 -35 7 -54 13 -19 6 -44 11 -55 11 -20 0 -20 -6 -24 -349
-2 -232 1 -351 7 -355 6 -4 55 -16 109 -27 126 -27 154 -34 233 -53 36 -9 104
-24 152 -35 48 -11 102 -28 120 -37 18 -10 44 -18 58 -20 36 -4 152 -34 172
-45 10 -5 28 -9 40 -9 31 0 142 -26 258 -60 52 -16 142 -43 200 -60 58 -17
116 -35 129 -41 21 -9 28 -7 41 11 15 20 17 20 50 4 19 -10 38 -22 43 -28 10
-16 7 -987 -4 -1007 -8 -16 -13 -16 -61 -2 -29 8 -82 19 -118 25 -36 5 -74 13
-85 18 -11 5 -58 16 -105 24 -151 27 -274 56 -281 67 -10 17 -62 -3 -74 -29
-5 -12 -13 -22 -18 -22 -4 0 -5 -6 0 -12 4 -7 8 -16 9 -20 1 -5 2 -11 4 -15 3
-13 6 -81 8 -204 l2 -116 38 -11 c20 -7 60 -16 87 -21 28 -5 82 -17 120 -26
39 -9 88 -21 110 -25 22 -5 49 -11 60 -14 41 -13 51 19 55 174 3 96 18 32 22
-90 l3 -95 65 -13 c36 -8 113 -25 172 -38 164 -37 148 -54 149 154 1 97 0 182
-1 187 -1 6 -1 228 1 495 2 267 3 901 4 1410 l0 925 -77 3 -78 3 0 -136 c0
-103 -3 -137 -13 -141 -7 -2 -54 9 -103 26 -49 17 -192 65 -319 107 -126 41
-238 79 -247 84 -10 5 -25 9 -33 9 -8 0 -15 4 -15 9 0 5 -20 12 -45 15 -24 4
-47 11 -50 17 -4 5 -163 9 -396 9 l-389 0 2 -162z"/>
<path d="M17985 10781 c10 -17 119 -72 131 -67 7 3 15 -2 18 -9 10 -27 8 -849
-2 -853 -6 -2 -30 6 -54 17 -133 60 -425 183 -498 211 -105 39 -155 58 -200
78 -32 14 -100 42 -275 112 -38 15 -108 44 -153 64 -46 20 -88 34 -92 31 -4
-3 -8 -115 -8 -250 l0 -246 37 -16 c20 -8 65 -26 101 -39 l65 -23 12 112 c6
62 12 125 12 141 1 20 4 27 11 20 12 -12 33 -220 25 -235 -4 -5 -4 -22 0 -38
5 -25 16 -32 88 -59 45 -17 124 -47 175 -67 51 -19 97 -33 101 -30 5 2 9 40
10 82 1 43 4 89 6 103 2 14 4 37 4 53 1 19 6 27 19 27 10 0 19 -6 20 -12 0 -7
4 -73 8 -146 l7 -133 71 -33 c114 -53 266 -116 282 -116 10 0 14 15 14 59 0
33 4 62 8 65 13 8 20 -187 16 -469 -2 -137 -3 -308 -4 -378 0 -98 -3 -128 -12
-124 -10 3 -12 89 -9 399 l3 395 -33 13 c-19 7 -50 18 -69 26 -97 37 -145 54
-151 54 -4 0 -10 -36 -13 -81 -6 -58 -4 -84 5 -95 11 -14 43 -30 139 -70 19
-8 43 -19 52 -24 10 -6 25 -10 35 -10 13 0 14 -3 5 -12 -8 -8 -18 -9 -34 -1
-13 6 -39 16 -58 23 -19 7 -54 21 -77 31 -52 23 -59 23 -67 3 -3 -9 -6 -135
-6 -280 0 -288 3 -275 -60 -253 l-32 12 6 381 6 381 -76 24 c-41 14 -77 29
-80 33 -8 13 -51 9 -57 -4 -2 -7 -5 -153 -6 -325 -2 -356 -14 -316 103 -354
38 -13 66 -28 66 -35 0 -8 -6 -14 -13 -14 -16 0 -106 28 -128 40 -21 11 -29 3
-29 -27 0 -13 -4 -23 -9 -23 -19 0 -110 33 -107 39 2 3 6 176 7 384 l4 378
-98 39 c-55 22 -105 40 -113 40 -12 0 -14 -61 -14 -386 l0 -386 -31 6 c-17 3
-35 6 -40 6 -5 0 -9 139 -9 309 l0 309 -35 6 c-20 4 -40 4 -45 1 -6 -4 -10
-123 -10 -314 l0 -308 55 -16 c30 -9 81 -24 113 -33 110 -31 247 -74 264 -84
10 -6 25 -10 33 -10 8 0 15 -4 15 -10 0 -5 8 -10 18 -10 9 0 55 -14 102 -31
47 -16 95 -31 107 -33 29 -5 63 -16 98 -31 17 -8 84 -34 150 -58 66 -25 157
-60 203 -78 67 -26 85 -30 92 -19 4 7 15 10 24 7 14 -6 16 -53 15 -449 -1
-244 -3 -458 -6 -475 -5 -34 -19 -40 -51 -24 -21 12 -105 37 -152 46 -19 3
-44 10 -55 15 -11 4 -38 13 -60 18 -94 24 -462 125 -480 132 -24 10 -216 62
-240 65 -5 1 -17 4 -25 7 -44 16 -124 38 -139 38 -9 0 -22 5 -28 11 -6 6 -21
9 -34 7 -23 -3 -24 -6 -27 -103 -1 -55 0 -142 4 -193 6 -90 7 -92 32 -97 15
-3 41 -10 59 -16 17 -5 54 -12 81 -16 l49 -5 7 111 c4 61 11 111 16 111 12 0
29 -79 34 -165 3 -44 6 -81 6 -81 0 -1 15 -4 33 -7 40 -7 137 -29 245 -56 46
-12 85 -21 87 -21 2 0 5 46 7 102 2 67 7 103 15 105 7 3 9 12 6 21 -3 9 -3 14
1 11 15 -14 36 -117 36 -180 0 -79 -21 -66 210 -130 44 -12 120 -29 139 -32
10 -1 18 15 26 48 l12 50 4 -55 4 -54 105 -28 c58 -16 130 -33 160 -39 30 -7
59 -16 64 -20 6 -5 15 -9 21 -9 8 0 10 513 9 1788 0 983 -2 1795 -3 1805 -1
15 -16 17 -167 17 -100 0 -163 -4 -159 -9z"/>
<path d="M18448 10673 c-2 -95 0 -120 12 -128 8 -5 114 -61 235 -124 121 -62
227 -119 236 -127 8 -8 19 -14 24 -14 4 0 61 -27 126 -60 l119 -60 0 315 c0
306 -1 315 -20 315 -10 0 -24 -8 -29 -17 -10 -17 -10 -17 -11 0 0 15 -12 17
-106 17 l-106 0 7 -229 7 -230 -21 6 c-21 5 -21 10 -21 229 l0 224 -105 0
-105 0 0 -160 c0 -150 -1 -160 -19 -160 -28 0 -31 18 -31 176 l0 144 -94 0
-95 0 -3 -117z"/>
<path d="M12995 10747 c-4 -8 -5 -36 -3 -62 3 -47 4 -49 43 -61 22 -6 78 -19
125 -29 47 -9 100 -20 118 -25 l32 -8 0 69 c0 63 -2 69 -22 73 -13 3 -36 8
-53 11 -16 3 -61 13 -100 21 -122 26 -134 27 -140 11z"/>
<path d="M14890 10312 l0 -88 58 -17 c95 -28 92 -30 92 71 l0 87 -60 18 c-93
27 -90 30 -90 -71z"/>
<path d="M12598 10335 c-11 -12 16 -34 28 -24 13 10 44 2 44 -12 0 -5 -11 -16
-24 -24 -13 -9 -27 -27 -30 -41 -4 -13 -11 -24 -17 -24 -14 0 -10 -183 5 -192
7 -5 4 -8 -6 -8 -13 0 -18 -8 -18 -28 0 -26 4 -29 58 -40 31 -6 97 -15 145
-18 48 -4 90 -11 93 -16 7 -11 71 -10 79 2 4 6 -9 10 -32 11 -21 0 -47 4 -58
8 -19 8 -19 8 3 20 12 7 27 9 32 6 6 -3 10 0 10 8 0 8 9 26 20 40 16 20 20 41
21 100 1 42 -2 80 -5 86 -4 5 -2 12 4 16 17 10 11 25 -9 25 -10 0 -22 7 -25
15 -3 9 -1 15 7 14 26 -3 37 2 37 16 0 10 -10 15 -27 15 -16 0 -44 4 -63 10
-31 8 -70 14 -230 37 -19 2 -38 2 -42 -2z"/>
<path d="M810 10121 c-8 -5 -85 -32 -170 -61 -169 -58 -212 -73 -340 -119 -47
-17 -95 -31 -107 -31 -12 0 -25 -5 -29 -11 -3 -6 -17 -8 -30 -5 -15 4 -23 2
-22 -5 2 -8 -82 -46 -109 -49 -5 0 -3 -1250 1 -1250 3 0 17 5 33 11 29 11 111
35 177 50 25 6 43 6 51 -1 9 -7 19 -3 38 14 14 13 49 29 79 36 146 33 306 71
334 80 17 6 39 10 50 10 29 0 59 24 49 39 -10 17 -5 328 10 654 3 64 1 87 -8
87 -16 -1 -116 -35 -124 -44 -3 -3 -14 -6 -24 -6 -21 0 -26 -37 -34 -240 -2
-74 -8 -213 -11 -308 -4 -98 -3 -172 2 -171 5 1 14 1 19 0 13 -2 -57 -27 -98
-35 l-32 -6 7 128 c4 70 9 217 13 327 3 110 7 215 10 233 2 17 1 32 -1 32 -11
0 -110 -32 -126 -41 -10 -5 -25 -9 -33 -9 -8 0 -16 -9 -16 -20 -1 -11 -2 -32
-4 -47 -2 -38 -20 -604 -19 -625 1 -23 -56 -44 -68 -26 -5 7 -6 40 -3 73 10
117 27 541 23 595 -2 43 -6 54 -18 51 -8 -2 -37 -10 -65 -18 -27 -8 -70 -20
-95 -27 -42 -11 -45 -15 -51 -52 -5 -34 -6 -32 -8 22 -1 60 -1 61 27 62 43 2
286 90 300 109 6 9 12 36 12 59 0 24 5 67 11 96 15 70 27 42 28 -64 1 -82 8
-91 49 -68 9 5 73 27 142 48 l125 39 3 59 c4 80 21 166 33 159 5 -4 9 -49 9
-101 0 -76 3 -94 15 -94 20 0 36 33 36 77 0 21 2 118 5 216 5 167 5 177 -13
177 -10 0 -25 -4 -33 -9z"/>
<path d="M16852 9719 l3 -92 34 -18 c19 -10 38 -24 43 -31 4 -8 8 10 9 42 0
30 2 77 4 103 l3 48 -45 20 c-24 10 -47 19 -49 19 -3 0 -3 -41 -2 -91z"/>
<path d="M18450 9450 c0 -132 2 -240 4 -240 2 0 11 -3 20 -6 14 -5 16 4 16 62
0 87 10 174 20 174 5 0 11 -53 15 -117 3 -65 8 -125 11 -133 2 -8 25 -24 51
-34 27 -11 73 -30 103 -44 105 -46 121 -52 130 -52 6 0 10 28 11 63 1 34 4 89
8 122 l6 60 13 -78 c6 -43 12 -104 12 -136 l0 -58 108 -47 c59 -25 113 -46
120 -46 6 0 12 -4 12 -10 0 -5 17 -12 38 -16 l38 -6 3 -141 c5 -264 11 -152
11 217 l0 367 -47 20 c-62 26 -99 43 -203 92 -47 22 -110 50 -140 64 -81 36
-123 55 -243 112 -59 28 -109 51 -112 51 -3 0 -5 -108 -5 -240z"/>
<path d="M7208 9245 c2 -14 0 -25 -4 -25 -13 0 -17 -97 -4 -120 6 -12 7 -20 1
-20 -5 0 -12 6 -14 13 -3 6 -6 3 -7 -8 -1 -19 -1 -19 -14 -2 -12 15 -15 -23
-20 -260 -8 -315 -9 -381 -7 -405 1 -23 53 -24 71 -3 16 20 26 700 10 690 -6
-4 -10 18 -10 54 0 34 4 61 10 61 6 0 10 11 10 25 0 14 -6 25 -14 25 -9 0 -12
-8 -8 -25z"/>
<path d="M18458 8753 c2 -277 6 -370 15 -375 6 -3 71 -27 142 -53 72 -26 148
-55 170 -65 48 -21 154 -61 175 -65 8 -2 66 -21 128 -43 101 -35 112 -37 112
-20 0 10 -6 17 -12 15 -10 -1 -14 75 -16 352 -2 357 -5 381 -39 381 -14 0 -90
30 -125 50 -49 27 -48 35 -48 -345 0 -376 1 -366 -44 -349 -14 5 -16 46 -16
355 l0 349 -22 9 c-13 5 -49 21 -81 35 -32 15 -61 24 -66 22 -5 -3 -6 -160 -3
-347 l5 -342 -38 6 c-21 3 -42 10 -46 14 -5 5 -9 164 -9 355 -1 257 -4 349
-13 356 -13 10 -155 72 -166 72 -3 0 -5 -165 -3 -367z"/>
<path d="M8516 8952 c-2 -1 -71 -3 -154 -3 -134 -1 -153 -4 -168 -20 -19 -21
-50 -27 -38 -7 5 8 -84 10 -366 5 -205 -3 -374 -7 -375 -9 -2 -2 -6 -114 -10
-250 -7 -231 -6 -248 10 -254 31 -12 43 21 50 139 4 62 10 117 14 122 3 6 8
-51 11 -125 l5 -135 30 1 c17 1 152 5 300 9 182 5 272 11 277 19 4 6 8 48 8
93 0 46 5 114 12 153 11 62 15 70 34 70 31 0 38 -38 35 -193 l-2 -127 293 2
293 3 3 50 c6 115 22 257 32 276 6 11 16 17 22 13 7 -4 6 -9 -3 -15 -11 -7
-11 -9 2 -9 24 0 29 -29 29 -182 l0 -138 220 -2 c121 -2 262 -3 313 -3 l92 0
7 110 c3 61 9 176 14 257 l7 148 -497 2 c-274 2 -499 2 -500 0z"/>
<path d="M9921 8922 c-5 -10 -8 -51 -6 -92 2 -41 7 -148 10 -237 4 -90 10
-163 14 -164 3 0 17 -2 31 -4 14 -2 106 -6 205 -9 99 -4 226 -9 283 -12 l102
-5 0 73 c0 96 21 278 32 278 5 0 6 5 3 10 -8 12 5 13 24 1 20 -13 30 -87 30
-232 l1 -126 68 -7 c205 -19 508 -34 517 -24 5 4 28 291 28 343 0 17 1 23 4
14 2 -10 12 -19 22 -22 23 -6 31 -67 31 -234 l0 -123 53 -1 c57 0 196 -10 410
-29 76 -6 141 -9 144 -6 3 3 7 49 10 103 3 54 8 112 12 128 7 27 9 25 14 -25
4 -30 9 -88 11 -129 4 -68 14 -90 39 -91 4 0 7 17 7 38 1 20 3 132 7 248 l5
210 -163 12 c-496 36 -518 37 -549 19 -43 -26 -64 -23 -56 8 6 25 6 25 -54 23
-43 -2 -60 1 -60 9 0 14 -13 17 -24 6 -10 -10 -195 -3 -225 9 -38 14 -183 11
-193 -4 -6 -10 -8 -8 -8 5 0 28 -45 22 -58 -8 -7 -14 -12 -32 -12 -40 0 -7 -6
-16 -12 -18 -10 -4 -9 -8 2 -16 12 -9 11 -11 -9 -11 -13 0 -21 3 -18 7 4 3 2
12 -4 20 -9 10 -8 13 5 13 9 0 16 5 16 10 0 6 -4 10 -10 10 -5 0 -10 7 -10 15
0 8 -6 15 -12 15 -9 0 -9 3 1 9 16 10 -11 12 -389 30 -118 5 -225 13 -237 16
-15 3 -25 -1 -32 -13z"/>
<path d="M12141 8885 c-7 -33 -13 -67 -14 -75 -1 -8 -6 -18 -10 -21 -10 -7
-11 -474 -2 -489 4 -6 22 -10 41 -10 l34 0 -1 268 c-1 228 -10 366 -19 312 -2
-8 -6 5 -9 30 l-7 45 -13 -60z"/>
<path d="M6745 8879 c-38 -5 -124 -13 -190 -19 -66 -5 -160 -14 -210 -19 -49
-5 -125 -10 -167 -10 -62 -1 -78 -4 -78 -16 0 -11 -7 -13 -32 -8 -18 4 -42 6
-53 5 -11 -2 -65 -5 -120 -8 -55 -2 -109 -9 -120 -14 -23 -10 -81 -18 -175
-24 -136 -8 -335 -30 -340 -36 -5 -7 -212 -30 -280 -31 -19 -1 -40 -5 -46 -10
-8 -6 -12 -85 -13 -244 l-2 -235 28 0 c69 0 70 2 80 118 l10 107 1 -107 2
-108 63 6 c34 2 85 9 112 15 49 9 192 26 312 36 72 6 73 7 73 127 0 86 17 206
30 206 27 0 35 -39 37 -174 l3 -141 32 1 c188 6 508 42 513 58 2 6 6 63 9 126
7 149 14 188 38 201 11 6 23 8 26 4 4 -4 8 -79 9 -167 1 -91 6 -165 12 -171 6
-6 29 -6 68 1 32 7 148 17 258 23 110 6 204 14 208 19 5 4 11 118 14 254 l6
246 -24 -1 c-13 -1 -55 -6 -94 -10z"/>
<path d="M14877 8374 c-4 -4 -7 -105 -7 -225 l0 -218 48 -6 c26 -4 61 -10 77
-15 17 -5 65 -12 108 -16 l77 -6 2 113 c1 63 3 137 3 164 0 61 22 87 55 65 13
-9 13 -11 0 -20 -11 -7 0 -10 38 -10 28 0 52 -4 52 -9 0 -5 -24 -8 -52 -7 -43
1 -52 -2 -49 -14 2 -8 6 -79 9 -158 l5 -142 26 -6 c14 -3 44 -9 66 -14 57 -14
139 -29 220 -41 39 -5 78 -14 87 -20 10 -5 26 -9 36 -9 17 0 19 12 25 151 3
84 10 156 16 162 7 7 6 21 -4 43 -8 21 -10 36 -4 39 5 4 7 11 4 16 -3 5 1 6 9
3 8 -3 21 -2 28 3 9 5 -3 10 -32 14 -107 16 -175 31 -181 41 -4 6 -21 8 -43 4
-23 -4 -36 -3 -36 4 0 5 -16 10 -36 10 -19 0 -43 4 -53 10 -10 5 -43 13 -74
18 -46 7 -59 6 -72 -7 -15 -15 -17 -15 -26 2 -6 9 -17 17 -25 17 -8 0 -13 4
-10 9 6 9 -58 23 -106 24 -16 0 -28 3 -28 7 0 7 -23 13 -110 26 -19 3 -38 2
-43 -2z"/>
<path d="M9295 8060 c-4 -7 -258 -10 -756 -10 -412 0 -755 -2 -761 -6 -7 -4
-161 -11 -342 -15 -182 -4 -410 -13 -506 -19 -303 -19 -561 -29 -576 -23 -9 3
-25 1 -37 -5 -12 -6 -92 -16 -177 -22 -530 -38 -790 -59 -825 -65 -59 -11
-328 -34 -336 -29 -5 2 -16 0 -26 -5 -17 -9 -64 -15 -353 -47 -144 -15 -348
-42 -695 -89 -66 -9 -147 -18 -180 -20 -33 -2 -89 -9 -125 -15 -36 -6 -110
-18 -165 -26 -55 -8 -140 -21 -190 -28 -49 -8 -137 -22 -195 -30 -58 -9 -145
-23 -195 -31 -49 -8 -131 -21 -181 -28 -49 -7 -95 -16 -100 -20 -6 -3 -37 -10
-70 -16 -32 -5 -140 -24 -239 -42 -99 -17 -216 -37 -260 -45 -44 -7 -120 -20
-170 -29 -152 -26 -218 -36 -223 -31 -2 3 -16 0 -31 -6 -14 -5 -66 -16 -116
-25 -49 -8 -128 -21 -175 -29 -47 -8 -123 -22 -170 -30 -47 -7 -101 -17 -120
-20 -19 -3 -102 -17 -185 -30 -82 -14 -190 -32 -240 -40 -49 -9 -103 -18 -120
-20 -89 -13 -276 -46 -313 -54 -23 -6 -55 -10 -70 -10 -62 0 -72 -9 -72 -60
l0 -48 43 5 c23 2 62 8 87 13 50 10 187 32 210 35 9 0 21 4 27 8 7 4 52 12
100 18 48 6 102 14 119 20 17 5 41 9 55 9 13 1 35 7 49 15 37 21 46 18 57 -17
10 -33 13 -32 27 16 3 9 24 17 53 20 118 15 211 28 248 37 68 16 347 61 410
66 33 2 69 8 80 13 59 25 74 17 76 -40 1 -33 2 -33 11 13 13 59 27 67 131 73
45 3 143 16 217 30 74 14 167 29 205 34 77 10 122 18 145 26 8 3 39 7 70 10
30 3 81 12 112 21 68 18 85 14 90 -24 4 -28 4 -28 14 7 7 22 17 36 30 38 10 2
26 6 34 9 8 3 24 7 35 8 89 13 177 28 215 36 25 5 84 14 130 19 47 5 96 12
110 14 35 7 237 36 280 41 19 2 58 8 87 14 29 6 79 13 112 17 l60 6 6 -36 c9
-44 25 -48 25 -6 0 22 6 33 22 39 31 12 226 41 276 41 22 0 52 4 65 9 13 5 57
12 98 16 41 3 90 10 109 15 19 4 42 8 50 8 8 0 47 5 85 10 39 6 110 13 160 17
49 3 92 8 96 10 3 3 51 9 105 15 55 6 111 13 125 16 20 4 28 0 36 -18 l10 -23
7 22 c8 25 30 31 148 37 43 3 82 7 87 10 10 6 85 18 236 36 44 5 112 14 150
20 65 11 246 26 410 34 127 7 250 17 271 22 17 5 24 -2 36 -32 l15 -38 7 31
c4 17 14 37 22 44 12 9 100 13 351 15 185 2 352 6 372 9 20 3 126 8 236 10
110 2 254 7 321 10 l121 5 13 -27 13 -28 10 26 10 26 451 8 c248 5 478 8 511
7 33 -1 155 -3 272 -5 124 -1 216 -6 222 -12 5 -6 11 -19 14 -30 3 -17 6 -15
17 12 9 26 16 31 28 25 22 -11 357 -13 403 -3 19 4 62 5 94 0 103 -14 213 -18
865 -32 14 -1 39 3 57 7 29 7 32 5 44 -31 l13 -38 10 34 10 33 150 -6 c83 -4
196 -11 251 -16 55 -5 186 -14 290 -20 105 -5 213 -11 240 -14 28 -2 100 -7
160 -10 61 -4 128 -9 150 -11 22 -3 71 -8 110 -10 72 -6 84 -13 86 -55 1 -23
2 -22 10 7 11 37 25 41 123 31 38 -4 130 -12 205 -18 75 -6 213 -20 306 -30
94 -11 231 -27 305 -35 74 -9 171 -20 215 -26 44 -6 110 -11 147 -12 l68 -2 6
-32 c7 -38 21 -43 26 -11 3 20 8 23 43 20 66 -4 217 -22 270 -32 28 -5 93 -14
145 -19 103 -11 244 -28 300 -37 19 -3 62 -10 95 -15 124 -20 183 -29 293 -41
l112 -12 9 -31 c9 -29 10 -29 16 -7 7 20 12 22 59 17 28 -3 67 -10 86 -15 19
-5 62 -11 95 -15 33 -3 67 -8 75 -10 8 -3 44 -9 80 -15 36 -5 101 -16 145 -25
44 -8 134 -24 200 -35 66 -11 167 -30 225 -41 58 -11 116 -20 130 -21 33 -2
50 -16 50 -42 0 -21 1 -20 19 3 20 27 16 27 236 -19 54 -12 126 -25 160 -29
33 -5 107 -18 165 -30 58 -12 137 -29 175 -37 39 -7 115 -23 170 -35 55 -12
127 -26 160 -30 33 -5 89 -16 125 -24 36 -7 101 -22 145 -31 44 -9 152 -34
240 -54 88 -21 196 -46 240 -56 44 -9 87 -25 95 -34 12 -12 21 -14 36 -8 23
11 110 -6 414 -82 41 -10 111 -26 155 -35 134 -30 187 -44 200 -55 9 -8 14 -8
17 0 2 7 19 6 53 -4 96 -27 265 -59 272 -52 12 12 -19 24 -92 37 -38 6 -95 20
-125 30 -30 9 -77 20 -105 24 -27 4 -79 15 -115 25 -36 10 -110 28 -165 40
-55 12 -115 26 -132 32 -18 5 -37 6 -43 3 -6 -4 -16 -3 -23 2 -14 11 -56 24
-177 54 -110 27 -105 26 -175 39 -33 6 -68 16 -78 21 -9 5 -28 7 -42 3 -15 -4
-25 -2 -25 5 0 6 -15 11 -34 11 -19 0 -37 4 -41 9 -3 5 -31 13 -63 17 -31 3
-61 9 -67 12 -5 4 -14 7 -20 9 -10 2 -46 10 -170 38 -104 24 -191 42 -275 59
-41 8 -109 22 -150 31 -76 16 -148 31 -300 59 -47 9 -119 23 -160 32 -116 23
-228 44 -307 56 -40 6 -73 15 -73 20 0 4 -13 8 -28 8 -16 0 -32 3 -35 6 -3 4
-26 8 -49 9 -24 2 -79 10 -123 18 -44 8 -123 23 -175 32 -52 9 -131 23 -175
31 -44 8 -118 21 -165 28 -47 8 -105 19 -130 24 -25 6 -90 18 -145 27 -55 9
-115 21 -134 27 -19 6 -71 14 -115 19 -75 7 -129 15 -366 49 -47 7 -94 16
-105 20 -11 5 -58 11 -105 15 -47 3 -105 10 -130 15 -51 11 -166 27 -290 40
-126 14 -222 31 -247 42 -12 6 -30 8 -39 4 -16 -6 -173 9 -344 34 -74 11 -209
26 -355 41 -55 5 -116 11 -135 14 -19 2 -87 9 -150 14 -63 6 -151 16 -195 21
-44 6 -100 10 -126 10 -29 0 -51 6 -59 15 -8 10 -17 12 -29 6 -9 -5 -84 -3
-181 5 -91 7 -228 18 -305 24 -77 5 -196 15 -265 20 -69 6 -181 13 -250 16
-69 3 -150 9 -180 14 -30 4 -98 8 -150 9 -70 2 -99 6 -112 18 -14 13 -21 13
-33 3 -10 -9 -51 -11 -152 -7 -407 15 -760 26 -1028 32 -240 6 -302 10 -311
21 -13 17 -21 18 -29 4z"/>
<path d="M768 7924 c-3 -3 -39 -12 -79 -19 -89 -17 -215 -42 -249 -50 -14 -2
-47 -9 -75 -15 -27 -5 -93 -19 -145 -30 -93 -20 -197 -40 -212 -40 -5 0 -8
-92 -8 -203 l0 -204 47 9 c27 5 80 13 118 19 39 5 78 14 87 19 10 6 26 10 37
10 16 0 19 11 25 93 8 106 13 127 29 127 9 0 12 -30 12 -102 0 -116 -9 -108
95 -88 30 6 89 15 130 22 41 6 80 15 86 19 6 5 14 52 18 104 7 99 12 125 27
125 5 0 9 -47 9 -105 l0 -105 28 0 29 0 6 113 c4 61 7 156 7 210 0 87 -5 109
-22 91z"/>
<path d="M8194 7613 c-35 -37 -66 -64 -71 -60 -4 5 -1 12 7 17 8 6 10 10 4 10
-6 0 -15 19 -20 43 l-9 42 -54 3 c-81 5 -101 -3 -101 -37 0 -31 -34 -78 -45
-61 -3 5 -15 10 -25 10 -14 0 -20 9 -22 37 -4 43 -23 51 -104 45 l-52 -4 -11
-96 c-7 -54 -11 -115 -10 -137 1 -22 0 -66 -3 -97 -3 -34 -1 -59 5 -61 16 -5
-15 -47 -35 -47 -10 0 -18 7 -18 15 0 8 -4 15 -9 15 -5 0 -13 9 -16 20 -6 18
-15 20 -101 20 l-94 0 -1 148 c-2 172 -2 170 -13 200 -7 21 -12 23 -79 20
l-72 -3 -7 -35 c-4 -19 -8 -44 -10 -55 -2 -11 -7 -23 -12 -27 -13 -9 -37 2
-30 14 3 5 -3 16 -15 24 -12 8 -21 23 -21 33 0 38 -37 49 -121 35 -36 -6 -37
-7 -45 -67 -8 -54 -11 -59 -24 -46 -8 9 -21 14 -28 11 -6 -2 -12 4 -12 13 0 9
-7 29 -15 46 -16 29 -17 30 -88 27 l-72 -3 -3 -72 c-3 -75 -10 -87 -54 -98
-24 -6 -29 -3 -39 21 -6 16 -13 45 -15 64 -3 19 -12 45 -20 58 -14 21 -21 23
-82 20 l-67 -3 -7 -55 c-4 -30 -9 -129 -12 -220 -4 -141 -7 -166 -22 -177 -17
-12 -17 -13 0 -13 13 0 16 -5 11 -20 -4 -13 -1 -22 9 -26 9 -3 16 -15 16 -25
0 -10 7 -19 15 -19 9 0 18 -7 21 -15 16 -42 115 8 138 69 9 23 16 47 16 54 0
23 28 24 49 3 12 -12 21 -26 21 -32 0 -10 15 -30 61 -86 10 -14 83 -16 109 -5
8 4 16 14 18 22 2 8 8 16 13 18 5 2 5 12 -1 23 -7 12 -7 19 -1 19 5 0 11 10
13 23 2 14 11 23 26 25 26 4 30 -14 5 -21 -17 -4 -17 -5 0 -6 9 0 17 -5 17
-10 0 -5 -8 -12 -17 -14 -16 -4 -16 -5 1 -6 10 0 33 -17 50 -37 43 -49 86 -50
125 -3 18 21 28 43 26 59 -2 13 1 34 6 45 6 16 8 13 9 -15 0 -26 3 -31 10 -20
7 12 13 11 34 -10 15 -13 26 -29 26 -35 0 -7 9 -20 19 -29 16 -14 48 -20 152
-26 73 -5 143 -4 155 0 13 5 30 23 39 40 18 35 33 38 63 10 12 -12 22 -16 22
-10 0 21 80 -64 81 -85 0 -17 2 -16 10 6 5 14 25 35 44 45 34 18 39 25 36 52
-2 11 2 11 20 1 17 -8 24 -9 27 -1 2 7 14 1 28 -13 45 -45 122 -45 158 -1 l21
27 73 -16 c40 -8 82 -20 92 -25 10 -6 43 -10 72 -10 51 0 54 2 71 38 l19 37
-70 135 -70 135 48 57 c35 42 46 63 43 80 -3 15 3 30 16 42 23 21 27 56 9 74
-7 7 -43 12 -92 12 l-80 0 -62 -67z"/>
<path d="M8964 7674 c-6 -2 -8 -18 -6 -34 2 -17 -1 -37 -7 -44 -9 -11 -9 -25
-1 -58 25 -94 34 -118 42 -118 5 0 8 -17 7 -37 -1 -23 6 -55 19 -80 12 -23 22
-49 22 -57 0 -8 4 -16 10 -18 5 -1 11 -16 12 -33 1 -17 14 -42 30 -58 15 -16
28 -32 28 -35 0 -12 63 -39 91 -41 15 0 32 6 39 14 18 22 28 18 28 -11 0 -53
19 -45 31 13 16 72 24 85 31 53 3 -14 16 -29 28 -35 12 -5 22 -14 22 -20 0 -6
10 -12 23 -13 84 -6 117 1 117 26 0 14 2 15 9 3 8 -12 12 -12 24 -2 23 18 68
20 99 5 15 -8 40 -16 55 -18 15 -2 41 -8 56 -15 43 -17 53 -14 90 23 38 38 40
61 12 146 -8 25 -41 131 -75 236 l-60 192 -75 7 c-86 8 -94 4 -114 -52 -17
-45 -31 -61 -50 -55 -8 3 -11 0 -7 -7 4 -6 1 -11 -6 -11 -21 0 -41 57 -34 94
8 40 4 42 -82 41 l-64 0 -35 -90 c-19 -49 -39 -102 -44 -116 -8 -19 -17 -26
-34 -25 -25 1 -30 11 -65 141 -12 44 -27 83 -34 87 -12 8 -114 9 -132 2z"/>
<path d="M10447 7633 c-18 -17 -6 -106 20 -156 15 -29 26 -55 25 -59 -1 -3 5
-12 13 -18 8 -7 15 -18 15 -26 0 -7 6 -19 13 -26 27 -28 56 -117 63 -186 8
-89 30 -121 86 -126 66 -4 97 53 99 183 1 86 17 160 18 81 0 -50 17 -147 20
-115 1 11 6 65 10 120 7 96 10 103 54 176 26 42 50 91 53 108 6 29 5 31 -23
31 -17 0 -50 2 -74 5 l-44 6 -45 -75 c-51 -85 -52 -85 -105 16 -27 53 -32 56
-73 62 -59 8 -117 8 -125 -1z"/>
<path d="M6075 7591 c-101 -48 -145 -137 -151 -306 -1 -44 -7 -99 -12 -123 -8
-36 -7 -42 5 -38 9 4 31 -12 59 -43 32 -35 51 -48 71 -48 15 0 45 -5 65 -11
29 -7 52 -6 105 9 37 11 70 24 71 29 7 21 31 9 37 -20 10 -47 21 -36 31 33 6
43 13 61 22 59 9 -2 11 4 7 18 -4 12 -2 27 4 34 11 13 -9 69 -30 81 -14 10
-10 46 11 90 25 52 25 75 -2 127 -27 52 -71 96 -115 114 -46 20 -131 17 -178
-5z"/>
<path d="M11042 7553 c-22 -116 -25 -140 -28 -253 -5 -242 10 -278 129 -299
86 -15 163 -14 200 3 18 8 40 16 49 20 35 11 54 59 48 122 -4 52 -8 59 -27 62
-26 4 -30 28 -9 58 16 22 24 123 12 143 -4 6 0 23 9 37 11 17 15 41 13 82 l-4
57 -44 6 c-25 3 -111 9 -191 13 l-146 7 -11 -58z"/>
<path d="M11520 7504 c-18 -60 -21 -93 -18 -150 3 -41 2 -74 -1 -74 -3 0 -5
-28 -4 -63 5 -190 9 -200 77 -210 34 -6 43 -2 72 27 19 19 34 43 34 54 0 28
31 23 52 -8 49 -74 60 -82 130 -87 l66 -6 26 39 26 39 0 241 0 241 -62 6 c-78
7 -85 1 -104 -89 -8 -37 -16 -69 -18 -71 -2 -2 -24 29 -49 69 -76 120 -67 113
-139 116 l-65 3 -23 -77z"/>
<path d="M5659 7566 c-2 -3 -24 -6 -49 -9 -51 -5 -47 4 -135 -254 -27 -79 -52
-143 -57 -143 -4 0 -8 -8 -8 -17 -1 -15 -4 -14 -20 6 -20 23 -20 23 -20 2 0
-12 7 -24 15 -27 11 -5 14 -15 9 -39 -3 -19 -1 -35 5 -39 16 -10 14 -26 -4
-26 -19 0 -35 61 -35 138 0 43 4 62 13 62 8 0 9 2 1 8 -7 4 -13 55 -16 134 -5
163 -9 168 -111 161 -40 -2 -77 -6 -84 -8 -7 -2 -19 -28 -28 -57 -23 -78 -31
-89 -44 -55 -6 16 -11 32 -11 37 0 5 -12 22 -28 39 l-27 30 -80 -7 -80 -7 -6
-38 c-6 -40 -19 -60 -26 -40 -2 7 -13 23 -24 37 -18 23 -28 26 -84 26 -35 0
-66 -3 -68 -7 -3 -5 -11 -66 -18 -138 -8 -71 -15 -120 -17 -108 -3 23 -32 41
-33 20 0 -7 -8 11 -17 40 -40 120 -151 183 -281 157 -44 -9 -114 -74 -144
-136 -15 -29 -27 -46 -28 -38 0 8 -5 4 -9 -10 l-8 -25 -2 25 c-2 14 -4 34 -5
45 -1 11 -2 28 -3 37 -3 24 -51 78 -70 78 -18 0 -82 -66 -82 -86 0 -7 -5 -25
-10 -39 l-10 -26 -43 33 c-23 19 -55 40 -72 47 -16 7 -37 17 -46 22 -9 4 -32
4 -50 -1 -19 -5 -47 -12 -62 -15 -35 -7 -114 -84 -123 -119 -3 -14 -10 -26
-14 -26 -16 0 -29 27 -24 47 4 14 -2 29 -16 43 -23 23 -21 23 -225 0 -140 -15
-145 -18 -145 -80 0 -42 5 -56 28 -79 61 -65 72 -94 72 -202 0 -94 1 -100 23
-110 12 -5 30 -24 40 -41 15 -26 21 -29 45 -23 15 4 32 11 39 16 20 17 41 94
36 135 -5 51 5 94 18 73 6 -10 9 -4 10 21 1 44 10 64 29 67 8 1 26 5 38 9 22
6 24 4 21 -27 -1 -19 5 -51 14 -73 10 -21 17 -45 17 -52 0 -8 4 -14 10 -14 5
0 7 -6 4 -14 -3 -8 4 -24 15 -35 12 -12 21 -25 21 -29 0 -5 12 -15 28 -22 25
-13 40 -17 87 -24 12 -2 22 -15 28 -37 10 -35 13 -33 30 23 3 9 19 19 35 22
62 14 142 112 142 175 0 12 5 21 10 21 6 0 9 3 9 8 -3 20 2 36 9 26 8 -13 72
10 72 26 0 6 10 8 24 4 20 -5 25 -2 28 17 5 37 28 35 29 -3 1 -26 3 -28 6 -9
4 22 7 20 29 -20 22 -37 23 -46 13 -66 -7 -13 -10 -25 -8 -27 45 -44 118 -85
158 -90 112 -12 185 -11 224 5 37 15 77 54 77 75 0 21 21 17 27 -6 3 -11 9
-17 15 -14 5 3 20 -1 33 -10 13 -9 36 -16 50 -16 33 0 95 26 95 39 0 6 9 11
21 11 11 0 18 -4 15 -9 -7 -10 68 -36 82 -27 13 8 22 -16 23 -62 1 -30 4 -22
18 38 11 47 20 70 25 62 8 -14 133 -15 170 -2 10 3 39 3 65 -1 37 -6 49 -4 61
10 8 9 23 20 34 24 10 4 16 13 12 22 -7 20 9 28 24 10 6 -7 17 -12 24 -9 8 3
16 -4 19 -15 4 -16 14 -21 44 -22 21 -1 43 0 48 1 6 2 24 5 42 8 19 2 33 11
36 22 3 13 12 16 33 14 16 -3 53 -7 82 -11 29 -3 55 -10 58 -14 7 -12 85 -11
104 1 8 5 12 10 7 10 -4 0 0 11 9 25 14 21 15 32 5 69 -6 25 -11 56 -11 70 0
14 -4 26 -8 26 -10 0 -42 81 -97 240 -20 57 -43 112 -52 122 -15 16 -53 24
-64 14z"/>
<path d="M12235 7530 c-93 -24 -158 -92 -201 -211 -20 -57 -20 -164 1 -195 8
-13 15 -30 15 -39 0 -20 85 -105 105 -105 8 0 15 -4 15 -9 0 -5 18 -11 39 -15
33 -5 41 -11 54 -43 l15 -38 17 43 c13 31 22 41 34 37 9 -2 30 4 46 15 17 11
37 20 45 20 9 0 35 19 58 43 l43 43 -3 110 c-3 105 -4 109 -26 112 l-22 3 21
39 c25 45 21 74 -17 119 -33 39 -53 50 -123 67 -63 15 -73 15 -116 4z"/>
<path d="M12603 7464 c-20 -31 -30 -101 -39 -274 -9 -160 -9 -181 1 -205 17
-42 37 -55 85 -55 40 0 52 5 79 32 l31 32 0 242 0 241 -37 7 c-75 12 -101 8
-120 -20z"/>
<path d="M18460 7320 c0 -146 2 -169 16 -174 9 -4 18 -5 19 -4 3 3 14 129 15
161 0 9 4 17 9 17 9 0 19 -61 24 -149 l2 -44 115 -30 c195 -49 189 -50 191 38
0 28 4 61 8 75 8 26 7 33 29 -124 l7 -49 95 -24 c52 -14 111 -29 130 -34 80
-20 76 -27 79 146 2 151 2 155 -18 155 -11 0 -38 6 -58 14 -51 18 -198 63
-248 75 -51 12 -217 59 -372 107 l-43 13 0 -169z"/>
<path d="M12850 7463 c-26 -19 -38 -68 -45 -198 -3 -60 -8 -141 -10 -180 -5
-92 8 -141 43 -159 41 -21 163 -37 233 -29 49 5 69 12 95 36 31 26 34 34 34
82 l0 53 -67 11 c-38 6 -84 12 -103 14 l-35 2 -3 182 -2 182 -38 6 c-20 3 -47
7 -59 9 -13 2 -32 -3 -43 -11z"/>
<path d="M13718 7384 c-4 -3 -13 -7 -22 -8 -18 -3 -61 -47 -80 -84 -8 -15 -15
-55 -17 -89 -3 -52 -1 -65 18 -85 l22 -23 -28 -13 c-16 -7 -31 -22 -34 -33 -7
-25 3 -89 13 -89 4 0 10 -13 13 -28 3 -15 17 -40 31 -55 14 -16 26 -37 26 -48
0 -10 5 -19 10 -19 6 0 10 7 10 16 0 12 7 14 28 10 88 -19 228 51 264 131 23
52 16 112 -18 165 -29 45 -29 53 -6 70 31 22 34 36 14 80 -24 53 -46 73 -101
93 -43 15 -132 21 -143 9z"/>
<path d="M14170 7297 c-21 -21 -120 -265 -120 -294 0 -7 -4 -13 -10 -13 -5 0
-10 -8 -10 -18 0 -10 -9 -35 -20 -57 -11 -22 -20 -49 -20 -61 0 -56 83 -72
150 -28 45 30 72 28 117 -9 38 -32 108 -58 130 -49 10 4 34 18 53 31 l36 24
-17 51 c-10 28 -43 134 -74 236 -31 102 -59 188 -63 191 -4 4 -35 9 -69 12
-55 6 -64 4 -83 -16z"/>
<path d="M14541 7251 c-17 -17 -21 -34 -23 -93 -2 -135 -7 -343 -8 -350 0 -3
-8 -9 -17 -11 -16 -4 -16 -5 0 -6 11 0 26 -10 35 -21 23 -27 72 -35 97 -16 11
9 31 24 45 35 l24 18 42 -42 c56 -56 100 -64 156 -29 37 24 77 26 63 4 -3 -5
-1 -10 4 -10 6 0 11 7 11 15 0 8 9 15 20 15 11 0 20 -6 20 -12 0 -7 20 -25 44
-40 84 -54 206 -27 294 63 90 92 53 342 -58 399 -95 49 -181 35 -264 -41 -51
-47 -55 -48 -59 -27 -3 14 -5 7 -6 -17 -2 -70 -21 -17 -21 61 l0 72 -47 11
c-68 18 -99 2 -117 -58 l-13 -46 -31 50 c-54 88 -54 88 -114 93 -47 4 -59 1
-77 -17z"/>
<path d="M2678 7225 c-2 -3 -49 -12 -104 -20 -170 -27 -161 -24 -172 -58 -5
-18 -10 -25 -11 -17 -2 27 -57 41 -107 28 -42 -12 -44 -14 -46 -53 0 -22 0
-49 0 -60 2 -13 -9 -3 -29 27 -30 46 -66 68 -104 62 -41 -5 -65 -17 -65 -31 0
-11 -5 -13 -17 -7 -20 9 -100 8 -153 -1 -131 -22 -148 -27 -142 -43 4 -12 2
-14 -14 -6 -10 5 -50 8 -88 8 -61 -1 -72 -4 -91 -26 -19 -23 -24 -24 -41 -11
-23 18 -112 12 -128 -8 -8 -10 -30 -13 -78 -11 -72 4 -70 5 -83 -52 l-6 -30
-12 24 c-15 29 -55 41 -110 32 -36 -6 -42 -11 -45 -35 -2 -15 -5 -27 -6 -27
-2 0 -29 11 -60 25 -31 14 -70 25 -86 25 -59 0 -125 -49 -133 -99 -5 -34 -16
-36 -45 -9 -61 58 -133 73 -198 42 -19 -9 -39 -25 -45 -35 -9 -18 -12 -18 -49
-3 -40 16 -48 16 -165 -6 -127 -23 -116 -17 -113 -69 2 -36 8 -48 25 -56 26
-11 34 -42 42 -165 6 -92 7 -95 34 -108 16 -8 26 -19 23 -27 -5 -13 22 -25 59
-25 25 0 55 51 48 79 -3 12 -1 21 5 21 6 0 12 -8 14 -17 3 -10 5 4 6 31 1 52
21 91 23 46 0 -14 3 -19 6 -12 3 8 11 4 25 -13 10 -14 16 -29 13 -35 -3 -6 0
-13 8 -16 8 -3 17 -13 20 -23 4 -18 72 -41 121 -41 34 0 106 38 106 57 0 19
25 11 26 -8 0 -8 2 -43 2 -78 2 -81 10 -76 13 9 3 69 18 97 46 85 15 -5 15 -7
3 -15 -12 -7 -11 -9 5 -9 11 1 50 -3 88 -7 48 -5 67 -4 67 5 0 6 9 11 20 11
11 0 20 3 20 8 0 4 12 12 26 19 21 10 28 9 45 -8 14 -14 26 -18 46 -12 15 3
33 6 40 6 7 0 14 6 17 13 3 8 25 11 75 8 74 -5 73 -5 120 51 8 10 16 13 20 7
3 -5 25 -15 48 -22 38 -12 44 -11 72 9 17 12 31 26 31 31 0 5 8 10 18 12 21 5
60 -34 68 -69 l7 -26 13 24 c7 13 33 32 59 43 42 17 53 17 100 6 40 -10 61
-10 86 -1 18 6 34 9 37 7 2 -3 27 4 56 14 28 11 78 21 112 23 38 2 73 10 95
23 45 27 79 35 79 21 0 -7 18 -13 40 -14 66 -4 87 41 92 200 1 33 8 61 14 65
7 4 12 16 11 27 -3 25 26 31 47 10 12 -13 16 -36 16 -101 0 -70 3 -86 17 -91
15 -6 15 -7 -3 -15 -14 -6 -11 -7 12 -4 26 4 32 1 42 -26 7 -20 16 -29 25 -25
21 8 37 -12 38 -47 1 -24 3 -19 9 16 5 26 15 62 24 79 11 22 16 60 16 124 l0
91 44 47 c48 52 60 94 50 169 -5 34 -12 46 -32 56 -27 13 -45 15 -54 7z"/>
<path d="M15539 7107 c-9 -7 -34 -64 -56 -127 -22 -63 -56 -157 -74 -208 -37
-100 -35 -119 13 -136 27 -9 108 15 134 41 11 12 18 9 40 -17 15 -16 33 -30
40 -30 7 0 14 -5 16 -11 2 -5 22 -13 45 -16 40 -5 49 -2 120 42 3 1 -84 320
-109 405 -9 29 -22 49 -38 57 -32 16 -110 16 -131 0z"/>
<path d="M15810 7067 c-22 -11 -25 -20 -28 -73 -3 -59 -2 -62 31 -87 45 -35
67 -104 67 -217 0 -96 12 -120 63 -120 34 0 97 37 98 58 0 10 4 68 8 130 7
118 13 131 56 132 32 1 57 44 53 93 l-3 42 -65 12 c-60 10 -152 26 -225 38
-16 2 -41 -1 -55 -8z"/>
<path d="M16504 6953 c-16 -3 -23 -14 -28 -41 -8 -52 -7 -395 2 -408 12 -19
50 -26 74 -13 12 7 37 15 55 19 29 7 32 5 35 -18 4 -38 48 -52 87 -29 41 24
71 21 111 -13 41 -36 49 -36 117 -8 49 20 53 24 54 57 1 28 3 30 6 11 3 -14 9
-30 14 -36 5 -6 4 -15 -3 -22 -9 -9 -8 -12 4 -12 9 0 18 -7 21 -15 4 -8 24
-23 47 -35 22 -11 40 -27 40 -35 0 -19 16 -19 24 0 5 13 35 29 119 64 63 25
83 145 35 206 -43 55 14 77 60 23 49 -58 61 -96 62 -194 0 -56 5 -96 13 -106
16 -21 48 -26 78 -11 13 6 32 14 42 17 14 4 17 18 17 80 0 41 5 98 11 125 10
46 14 51 47 60 20 6 38 8 41 5 3 -3 4 -73 3 -156 -3 -131 -1 -152 14 -169 20
-23 52 -24 78 -4 11 8 28 15 38 15 16 0 18 10 18 84 0 46 3 104 6 129 l7 46
37 -46 c36 -46 36 -47 39 -147 1 -56 4 -108 7 -117 7 -24 45 -31 71 -14 12 8
31 15 41 15 18 0 20 10 24 115 5 125 17 155 65 155 23 0 23 -2 23 -100 0 -151
35 -233 104 -245 46 -9 145 25 169 56 16 22 32 102 37 182 0 14 21 7 27 -10 4
-10 11 -21 16 -25 6 -3 14 -55 18 -115 5 -59 11 -114 14 -120 6 -17 30 -16 80
1 l40 14 5 112 c4 96 8 114 24 126 11 8 27 14 35 14 14 0 16 -18 13 -132 -2
-73 -1 -142 3 -155 7 -30 42 -38 88 -18 l37 15 0 180 0 179 -33 6 c-18 4 -44
5 -57 4 -14 -2 -41 4 -60 13 -48 22 -145 42 -205 42 -27 0 -52 3 -55 6 -23 26
-111 33 -125 10 -6 -10 -14 -99 -15 -175 -1 -51 -3 -56 -11 -35 -6 14 -8 58
-5 100 3 41 3 91 -2 110 -7 30 -13 36 -46 44 -25 7 -47 6 -67 -1 -23 -9 -29
-9 -29 3 0 7 -10 16 -22 19 -166 42 -251 53 -272 36 -10 -8 -16 -5 -24 14 -9
19 -20 25 -44 26 -54 2 -83 -2 -89 -13 -10 -15 -29 0 -29 23 0 12 -7 19 -19
19 -11 0 -46 6 -78 14 -157 37 -173 39 -198 28 -14 -6 -25 -18 -25 -27 0 -23
-15 -18 -30 11 -19 35 -56 59 -114 73 -34 8 -52 9 -59 2 -6 -6 -19 -11 -28
-11 -10 0 -34 -15 -53 -34 -34 -32 -36 -37 -36 -98 0 -38 5 -69 13 -77 10 -10
8 -15 -7 -27 -40 -29 -45 -19 -40 74 3 48 2 114 -3 147 l-8 59 -41 8 c-50 10
-94 -4 -94 -30 0 -36 -14 -31 -44 16 -31 46 -32 47 -89 50 -50 3 -60 0 -77
-20 l-19 -23 -1 38 c0 32 -3 37 -24 37 -13 0 -36 2 -52 4 -16 2 -39 2 -50 -1z"/>
<path d="M7776 6772 c-5 -9 -405 -26 -1025 -42 -338 -9 -397 -9 -409 4 -12 12
-16 12 -31 -3 -15 -15 -48 -19 -237 -25 -120 -3 -300 -11 -399 -16 -254 -14
-505 -29 -607 -37 -82 -5 -88 -4 -88 13 -1 18 -1 18 -14 2 -15 -20 -91 -30
-416 -54 -113 -8 -272 -21 -355 -29 -346 -32 -446 -38 -457 -27 -8 8 -14 7
-23 -4 -8 -12 -42 -18 -131 -25 -382 -28 -527 -40 -594 -49 -112 -15 -279 -32
-335 -36 -27 -1 -61 -5 -75 -8 -32 -6 -157 -21 -335 -41 -77 -8 -178 -20 -225
-25 -223 -26 -372 -40 -380 -35 -5 3 -11 1 -14 -4 -3 -5 -48 -12 -98 -16 -51
-5 -102 -9 -113 -11 -92 -13 -560 -65 -625 -70 -30 -2 -89 -9 -130 -14 -117
-17 -472 -57 -587 -66 l-73 -6 0 -38 c0 -38 0 -38 56 -51 30 -8 55 -18 55 -24
1 -31 52 -53 284 -121 113 -33 161 -47 180 -55 11 -4 45 -15 75 -25 30 -10 60
-24 66 -31 17 -20 5 -60 -19 -67 -12 -4 -174 -10 -359 -13 l-338 -6 0 -888 c0
-837 1 -888 18 -892 16 -4 16 -5 0 -6 -14 -1 -18 -10 -18 -40 0 -29 5 -41 18
-44 16 -4 16 -5 0 -6 -16 -1 -18 -12 -18 -85 0 -80 1 -85 23 -89 l22 -4 -23
-2 -22 -1 0 -685 c1 -637 2 -685 18 -694 16 -10 16 -10 0 -11 -25 0 -22 -17 4
-26 l22 -7 -22 -17 c-20 -16 -22 -28 -22 -107 0 -86 1 -90 25 -101 14 -7 36
-12 48 -12 20 -1 21 -1 4 -11 -14 -8 -22 -8 -30 0 -19 19 -47 13 -47 -10 0
-16 5 -20 20 -16 11 3 20 1 20 -4 0 -8 24 -6 88 7 26 5 29 21 5 26 -10 3 18 3
62 2 58 -2 71 -1 45 5 -19 5 -27 9 -17 10 9 0 17 6 17 11 0 14 33 12 54 -3 12
-9 36 -12 67 -9 40 3 49 1 49 -12 0 -9 -12 -21 -28 -27 -15 -6 -34 -15 -42
-19 -9 -4 -30 -6 -48 -4 -20 3 -31 0 -27 -6 3 -5 -5 -15 -20 -22 -27 -12 -29
-35 -1 -30 9 2 26 -4 37 -12 12 -8 27 -12 33 -10 7 3 24 1 37 -5 25 -9 62 7
59 26 0 4 8 9 20 11 21 4 29 32 8 32 -6 0 -8 3 -5 6 4 4 13 1 22 -6 11 -9 22
-10 45 -1 16 6 43 16 59 22 18 6 32 20 34 32 3 18 5 17 6 -5 1 -28 37 -75 48
-64 3 3 14 -3 23 -14 17 -19 17 -19 40 2 17 16 39 23 77 25 32 1 53 -2 53 -8
0 -19 64 -5 75 16 7 14 22 21 47 23 41 3 50 -12 21 -33 -15 -11 -14 -12 12 -8
17 2 48 13 70 23 63 29 75 31 75 15 0 -8 -9 -15 -20 -15 -11 0 -19 -5 -18 -11
2 -7 -11 -16 -29 -21 -31 -8 -50 -24 -41 -34 3 -2 24 3 48 11 33 12 46 13 54
4 8 -9 7 -10 -5 -6 -20 7 -42 -26 -27 -41 7 -7 21 -7 47 2 43 15 71 10 71 -11
0 -9 -6 -13 -15 -9 -12 4 -14 0 -9 -18 3 -13 1 -27 -5 -30 -34 -22 5 -30 87
-19 39 5 33 23 -9 23 -36 0 -40 30 -6 45 15 7 21 18 20 33 -2 12 2 22 7 22 6
0 10 6 10 14 0 17 33 27 51 15 11 -6 10 -9 -4 -15 -25 -9 -21 -33 8 -40 20 -5
23 -9 14 -20 -9 -11 -8 -14 4 -14 8 0 17 6 20 13 3 9 7 9 17 0 7 -6 18 -9 25
-7 6 3 12 -2 12 -10 0 -8 -5 -14 -11 -13 -5 1 -12 -7 -14 -18 -3 -16 -1 -18 9
-8 7 7 25 13 39 13 14 0 30 4 35 9 6 5 33 11 60 12 64 3 108 18 101 34 -5 13
12 35 26 35 4 0 8 -5 8 -11 0 -5 -4 -7 -10 -4 -5 3 -10 -1 -10 -9 0 -18 54
-46 90 -46 14 0 31 -5 38 -12 9 -9 9 -5 0 15 -7 15 -18 25 -24 23 -12 -4 -34
12 -34 25 0 4 23 6 52 4 28 -1 60 2 70 9 13 8 23 8 35 0 22 -14 28 -34 11 -34
-8 0 -23 -6 -33 -14 -19 -14 -19 -15 -2 -33 9 -11 17 -25 17 -31 0 -7 4 -12 9
-12 5 0 17 -8 27 -17 17 -17 16 -18 -12 -23 -33 -6 -48 -40 -17 -40 11 0 24 5
31 12 7 7 33 17 58 24 37 9 52 9 71 -1 l24 -13 -23 -17 -23 -17 34 6 c19 3 39
13 46 22 8 12 22 15 48 12 36 -4 36 -3 22 18 -12 19 -12 24 0 34 8 7 15 18 15
24 0 6 9 17 20 24 13 8 20 9 20 1 0 -6 9 -8 23 -4 16 5 18 4 8 -4 -12 -8 -12
-12 -2 -25 8 -9 11 -17 7 -17 -3 -1 -10 -3 -16 -4 -5 -1 -14 -3 -20 -4 -5 0
-10 -8 -10 -17 0 -14 7 -15 37 -10 21 3 46 6 56 6 10 0 17 8 17 20 0 15 7 20
26 20 14 0 23 -4 19 -10 -3 -5 -13 -10 -21 -10 -8 0 -14 -7 -14 -15 0 -8 -12
-17 -27 -21 -16 -3 -40 -10 -55 -16 -15 -5 -33 -8 -40 -6 -17 6 -52 -28 -43
-41 10 -16 25 -13 25 5 0 12 5 14 18 9 9 -5 33 -9 52 -11 19 -2 27 -1 18 2
-10 3 -18 12 -18 21 0 24 24 9 39 -25 14 -31 34 -41 45 -23 4 5 25 12 49 16
23 4 46 10 52 13 5 4 19 6 30 7 11 0 20 7 20 15 0 8 -5 14 -10 13 -6 -1 -12
12 -13 28 -3 38 10 37 25 -1 6 -16 18 -30 26 -30 8 0 17 -10 20 -22 5 -16 9
-19 19 -10 17 13 34 4 41 -23 5 -19 5 -19 12 2 10 30 74 42 93 16 13 -17 14
-17 28 1 13 19 15 19 44 -14 16 -18 31 -38 33 -44 7 -18 19 1 19 29 1 14 5 25
10 25 5 0 7 -4 4 -9 -3 -5 1 -12 10 -15 24 -9 74 -7 74 3 0 5 10 11 23 13 14
2 23 11 25 26 2 12 6 22 10 22 9 -1 48 -30 40 -30 -3 0 -2 -15 1 -32 7 -32 8
-33 56 -33 43 0 50 -3 47 -18 -3 -17 1 -18 40 -12 24 4 45 11 46 16 2 5 14 9
27 9 14 0 29 9 35 21 16 28 52 21 60 -11 5 -20 12 -25 34 -23 16 1 35 11 43
23 29 41 77 13 75 -44 -2 -39 15 -48 42 -21 30 30 166 13 166 -22 0 -7 6 -13
14 -13 8 0 16 -5 18 -12 5 -14 108 -22 108 -8 0 6 5 10 11 10 7 0 22 12 35 27
23 26 24 27 37 9 12 -16 19 -17 45 -8 24 8 33 8 43 -4 6 -8 20 -14 30 -14 10
0 30 -5 46 -11 28 -11 28 -11 6 -20 -26 -10 -31 -29 -7 -29 8 0 12 -5 9 -10
-4 -6 -13 -7 -24 -1 -9 5 -37 7 -61 4 -28 -4 -41 -3 -37 4 8 13 -33 22 -59 13
-17 -6 -17 -8 6 -15 36 -12 53 -33 47 -61 -3 -19 1 -28 17 -34 11 -4 26 -4 31
0 17 12 46 20 41 11 -8 -12 30 -23 89 -26 39 -2 53 2 63 16 7 11 22 19 33 19
35 0 83 35 73 52 -3 4 0 8 6 8 6 0 8 6 4 13 -4 6 4 0 19 -15 30 -32 36 -33 63
-13 25 19 34 19 34 -1 0 -28 -25 -42 -68 -39 -35 3 -42 0 -42 -15 0 -10 -7
-26 -17 -35 -13 -13 -13 -19 -4 -25 8 -4 11 -16 6 -29 -5 -17 -2 -21 17 -21
27 0 49 30 42 57 -7 26 21 48 57 45 26 -2 29 0 25 23 -5 29 -8 29 37 10 19 -8
37 -12 40 -9 3 3 11 3 17 -1 16 -10 -40 -50 -66 -47 -26 4 -38 -22 -18 -38 8
-7 14 -19 14 -26 0 -20 29 -6 70 34 38 37 76 56 97 48 8 -3 11 -1 8 4 -3 6 -2
10 3 10 12 0 42 -34 42 -48 0 -15 17 -16 25 -1 4 5 -1 19 -11 30 -16 18 -16
19 9 19 31 0 35 14 10 29 -16 9 -15 10 5 11 29 0 82 -27 82 -42 0 -7 15 -8 48
-4 84 12 97 12 97 -4 0 -8 -11 -17 -25 -20 -18 -4 -25 -13 -25 -30 0 -21 5
-25 30 -25 30 0 33 6 24 45 -3 11 6 16 29 18 33 3 40 -6 20 -26 -9 -9 -8 -12
4 -12 9 0 20 5 23 10 3 6 19 10 35 10 16 0 32 5 35 10 4 6 -8 10 -30 10 -29 0
-36 3 -33 17 2 12 16 20 41 24 20 3 35 4 32 1 -2 -2 1 -14 6 -25 8 -14 13 -16
19 -8 5 9 9 8 13 -4 4 -9 3 -13 -2 -10 -5 3 -12 -4 -16 -15 -4 -12 -19 -22
-41 -26 -24 -4 -34 -11 -32 -22 5 -24 26 -26 33 -3 5 16 10 18 29 11 19 -7 26
-4 36 15 13 25 53 40 73 29 7 -4 5 1 -5 12 -26 30 -27 58 -2 60 12 1 26 4 31
7 5 3 8 -6 5 -21 -4 -27 -3 -27 53 -24 40 3 55 1 51 -7 -4 -6 -14 -11 -22 -11
-22 0 -68 -46 -59 -59 5 -9 10 -9 21 -1 17 15 113 21 137 9 9 -6 17 -18 17
-28 0 -10 7 -24 15 -31 13 -11 21 -9 45 8 31 24 73 28 115 12 18 -7 24 -7 20
1 -7 11 22 49 37 49 4 0 8 -7 8 -15 0 -26 27 -28 59 -6 16 12 35 21 43 21 16
-1 56 -30 40 -30 -7 0 -12 -8 -12 -19 0 -15 8 -19 50 -20 43 0 50 2 50 18 0
12 -11 23 -30 30 -16 5 -30 14 -30 20 0 13 38 24 79 23 29 -1 33 1 28 20 -6
20 -5 20 11 4 16 -16 16 -18 -5 -36 -28 -23 -29 -30 -2 -30 11 0 23 -8 26 -17
9 -32 59 -64 87 -57 30 7 35 30 9 37 -10 3 18 5 61 5 78 -1 80 -1 89 25 5 17
16 27 28 27 10 0 19 5 19 11 0 6 10 9 23 7 16 -2 21 -9 19 -25 -2 -17 7 -30
37 -50 22 -15 42 -36 44 -45 4 -13 15 -18 39 -17 21 1 26 3 13 6 -29 7 -45 23
-45 44 0 15 7 18 38 16 32 -2 37 1 36 18 -1 14 6 21 17 22 27 2 33 -15 9 -29
-44 -28 -11 -73 35 -48 28 15 52 2 57 -31 3 -18 5 -18 22 -6 18 13 17 15 -9
41 -19 19 -24 31 -17 38 16 16 42 2 42 -23 0 -15 4 -19 16 -15 9 3 18 6 20 6
2 0 4 9 4 19 0 14 -5 18 -20 14 -26 -7 -26 9 0 32 20 18 21 18 35 -1 8 -10 15
-22 15 -26 0 -5 11 -8 25 -8 14 0 28 -7 31 -15 8 -19 33 -19 40 0 4 8 17 15
30 15 15 0 24 -6 24 -15 0 -8 9 -15 20 -15 11 0 20 5 20 10 0 6 5 10 10 10 6
0 10 -6 10 -14 0 -32 -127 -32 -178 1 -13 8 -30 12 -38 9 -22 -9 1 -45 37 -58
34 -12 37 -23 9 -40 -27 -17 -26 -40 3 -36 12 2 21 9 20 16 -2 6 4 12 12 12 8
0 15 5 15 10 0 6 12 10 27 10 15 0 36 9 48 20 23 21 65 18 65 -6 0 -8 7 -14
15 -14 9 0 15 9 15 25 0 14 4 25 10 25 14 0 50 42 44 52 -3 4 4 8 16 8 12 0
18 5 15 10 -10 16 12 12 29 -6 22 -21 20 -41 -4 -49 -11 -3 -20 -12 -20 -20 0
-17 39 -26 61 -14 23 12 60 12 41 0 -10 -6 -8 -10 8 -14 25 -6 50 12 50 37 0
21 18 30 34 17 7 -6 21 -9 30 -5 17 7 22 -11 6 -21 -12 -7 12 -35 30 -35 6 0
13 -7 16 -15 4 -8 13 -15 21 -15 11 0 13 -7 8 -32 -4 -18 -14 -37 -21 -41 -8
-4 -14 -16 -14 -26 0 -10 -7 -24 -15 -31 -8 -7 -15 -17 -15 -23 0 -6 18 8 41
31 23 24 37 47 33 54 -4 7 -3 8 4 4 6 -3 16 3 22 14 6 11 15 18 20 15 13 -8
60 24 60 40 0 7 6 15 14 18 10 4 16 -2 18 -21 l3 -27 22 24 c25 26 45 22 23
-5 -12 -13 -11 -17 1 -24 10 -7 16 -2 22 20 7 29 30 40 42 20 3 -5 21 -8 39
-5 31 3 34 1 38 -26 3 -16 1 -29 -4 -29 -4 0 -8 -4 -8 -10 0 -5 7 -10 15 -10
8 0 14 3 13 8 -3 11 20 72 28 72 3 0 4 -18 2 -40 -3 -31 0 -39 10 -35 8 3 16
5 18 5 2 0 4 18 4 40 0 27 -5 43 -15 46 -17 7 -21 34 -5 34 12 0 50 -37 50
-49 0 -14 43 -1 59 18 12 14 13 14 8 0 -6 -19 31 -19 43 0 5 9 10 10 14 2 10
-16 26 -14 26 4 0 21 23 19 43 -3 26 -28 21 -33 -29 -28 -41 4 -46 2 -55 -21
-12 -32 -12 -53 1 -53 6 0 10 7 10 16 0 8 7 22 15 30 13 14 15 10 15 -35 0
-42 3 -49 16 -44 10 3 14 13 11 25 -5 18 -4 19 12 4 22 -20 35 -20 50 -2 17
20 -4 30 -22 11 -12 -11 -16 -12 -20 -2 -6 17 11 47 27 47 8 0 19 7 26 15 7 8
34 15 63 17 40 2 51 7 49 18 -2 13 -1 13 10 0 24 -29 79 -62 93 -56 10 4 13
14 9 36 -4 19 -2 30 4 30 6 0 19 8 29 19 10 10 29 17 43 16 14 -1 31 3 39 9
11 8 15 8 18 -1 3 -7 17 -13 31 -14 15 0 22 -3 15 -5 -7 -3 -10 -11 -7 -19 3
-7 0 -23 -6 -35 -8 -16 -9 -25 -1 -33 15 -15 51 20 51 50 0 16 6 23 19 23 10
0 24 6 30 14 19 23 59 26 64 4 3 -10 2 -18 -3 -18 -4 0 -11 -8 -14 -17 -8 -19
14 -37 28 -23 19 19 28 10 21 -20 -5 -23 -3 -30 9 -30 10 0 16 9 16 23 0 30
10 40 25 27 15 -12 23 12 20 56 -2 26 1 29 27 29 21 0 34 -7 44 -25 l14 -25
-6 30 -6 30 21 -25 c12 -15 18 -33 15 -43 -4 -12 2 -24 15 -34 12 -8 19 -19
15 -24 -4 -6 -14 -3 -25 7 -15 13 -22 15 -31 6 -21 -21 4 -37 67 -45 16 -2 22
8 34 63 11 50 16 61 22 45 8 -20 8 -19 14 2 4 12 13 19 20 17 7 -3 15 2 18 10
9 24 27 19 27 -7 0 -23 17 -47 32 -47 4 0 8 7 8 15 0 8 6 15 13 15 18 0 49
-34 40 -43 -3 -4 -2 -7 4 -7 17 0 9 65 -10 84 -19 20 -14 36 11 36 27 -1 53
-26 46 -44 -5 -13 1 -15 41 -13 25 1 48 0 51 -4 7 -12 -8 -39 -21 -39 -20 0
-29 -20 -16 -33 8 -8 11 -8 11 1 0 7 10 9 30 5 29 -5 30 -5 30 36 0 45 9 52
28 21 7 -11 16 -20 21 -20 16 0 24 42 11 50 -9 5 -9 9 -1 14 6 4 11 3 11 -2 0
-5 9 -12 20 -15 11 -3 25 -18 31 -34 l12 -28 6 29 c6 27 7 28 21 11 10 -12 15
-38 14 -77 -1 -43 2 -58 12 -58 10 0 14 15 14 53 0 61 4 69 46 90 31 16 62 9
50 -12 -4 -6 0 -11 9 -11 9 0 19 -9 22 -20 5 -19 20 -20 71 -4 14 4 3 29 -33
74 -11 14 -16 22 -11 18 5 -4 15 -3 23 3 9 9 17 8 27 0 11 -9 15 -9 19 1 3 8
9 3 15 -13 9 -21 16 -26 36 -22 18 4 28 0 32 -11 3 -9 14 -16 25 -16 10 0 25
-10 34 -22 14 -21 17 -21 28 -7 7 9 19 18 27 22 10 4 8 6 -7 6 -44 2 -22 19
22 19 41 -1 45 -3 39 -22 -6 -19 -5 -19 10 -7 14 12 19 12 25 2 6 -10 10 -9
15 4 8 22 26 9 26 -19 0 -12 3 -26 8 -30 4 -4 7 -11 8 -14 4 -37 18 -82 25
-82 9 0 11 7 13 47 1 30 19 30 28 1 5 -19 6 -18 7 10 1 18 -4 42 -10 54 -6 11
-7 23 -3 26 4 4 9 1 11 -5 7 -20 21 -15 26 10 3 13 5 7 6 -16 0 -23 5 -36 11
-32 6 4 7 11 4 17 -4 6 -1 9 7 6 8 -2 20 -19 28 -36 8 -18 18 -32 23 -32 12 0
10 48 -4 70 -7 10 -9 22 -6 26 12 11 28 -7 28 -32 0 -13 5 -24 10 -24 6 0 10
16 10 36 0 32 1 34 16 20 19 -20 29 -20 48 -1 16 16 46 10 46 -9 0 -6 5 -3 11
7 13 22 25 22 33 0 15 -43 56 -98 56 -76 0 7 -4 15 -10 18 -12 8 -13 55 -1 74
7 11 11 5 16 -22 10 -53 21 -46 28 19 3 31 7 58 9 60 2 2 22 -3 43 -11 22 -8
33 -15 25 -16 -8 0 -24 -2 -34 -3 -30 -2 -32 -26 -2 -26 18 0 26 -5 26 -18 0
-10 6 -24 12 -30 7 -7 13 -39 13 -74 0 -43 4 -63 14 -66 11 -4 12 8 8 59 -3
35 -9 76 -13 92 -4 19 -2 27 7 27 7 0 10 -3 6 -6 -3 -4 0 -19 8 -35 8 -15 13
-34 10 -41 -6 -18 32 -61 49 -55 7 3 16 20 20 38 7 35 0 51 -13 30 -6 -9 -11
-10 -15 -2 -7 12 21 61 35 61 5 0 9 -10 10 -22 l0 -23 16 22 c18 26 33 30 33
8 0 -20 10 -19 26 3 12 16 13 15 14 -5 0 -21 34 -42 47 -29 4 3 12 1 20 -5 10
-9 13 -5 13 20 0 20 4 30 10 26 6 -4 17 -2 24 4 11 9 15 6 20 -14 7 -29 21
-32 44 -8 16 16 17 15 20 -7 2 -13 15 -39 29 -57 20 -26 23 -37 15 -45 -17
-17 -15 -48 2 -48 8 0 15 8 15 18 0 23 5 44 14 60 5 7 3 12 -4 12 -6 0 -9 8
-6 20 3 13 0 20 -8 20 -22 0 -27 19 -13 50 14 33 26 38 34 15 4 -8 12 -15 18
-15 32 0 64 -27 77 -65 12 -33 19 -40 38 -37 16 1 24 -4 28 -18 3 -11 12 -20
19 -20 19 0 18 54 -1 70 -8 7 -15 18 -15 25 0 7 -7 18 -16 26 -9 7 -13 21 -10
33 3 11 -2 25 -12 33 -15 13 -12 14 23 9 37 -5 65 -26 78 -59 4 -9 8 -8 16 3
10 13 13 12 26 -4 20 -27 19 -48 -6 -91 -17 -28 -19 -39 -10 -48 9 -9 16 -8
32 1 12 8 23 11 26 8 3 -3 -2 -8 -11 -12 -13 -5 -14 -9 -5 -20 9 -11 15 -11
25 -3 7 6 18 8 24 4 16 -10 6 32 -13 52 -10 12 -13 24 -8 32 11 18 30 6 43
-27 6 -15 12 -22 15 -15 2 7 0 21 -6 32 -13 24 -14 64 -2 56 5 -3 12 -1 16 5
3 5 1 10 -5 10 -7 0 -10 6 -7 13 5 15 -10 47 -23 47 -14 0 -12 -34 2 -48 9 -9
8 -12 -5 -12 -12 0 -17 8 -17 30 0 17 0 33 0 38 -1 15 42 13 76 -3 40 -19 54
-43 33 -56 -12 -8 -12 -11 1 -19 22 -14 37 -12 44 5 11 30 28 15 24 -22 -3
-33 0 -38 17 -35 11 2 26 11 33 20 7 9 18 16 23 14 15 -4 10 10 -13 35 l-21
23 42 0 c38 0 42 2 31 15 -10 12 -9 15 6 15 23 0 46 -14 43 -26 -4 -24 2 -44
15 -44 7 0 19 -7 26 -15 7 -8 21 -15 30 -15 10 0 21 -6 23 -12 4 -10 8 -9 16
2 8 12 6 16 -8 18 -25 4 -36 32 -13 33 14 0 14 2 -3 8 -11 5 -23 7 -27 4 -5
-2 -8 0 -8 5 0 6 7 12 15 16 22 8 18 23 -7 29 -45 12 -8 18 43 7 30 -6 66 -14
82 -17 32 -6 36 -23 6 -23 -18 0 -19 -3 -9 -14 9 -11 18 -13 37 -5 15 5 32 8
40 5 9 -4 10 -1 4 12 -5 9 -12 25 -15 34 -3 12 -11 15 -22 11 -11 -4 -15 -2
-11 4 4 6 -4 14 -19 17 -51 13 -15 17 45 5 34 -6 59 -14 56 -17 -2 -3 0 -11 6
-19 9 -10 8 -17 -1 -28 -10 -13 -9 -15 9 -15 12 0 21 6 21 15 0 20 6 19 43 -7
18 -13 32 -22 32 -20 0 2 8 0 18 -4 13 -5 15 -10 7 -19 -7 -9 -7 -15 -1 -19 5
-4 12 -2 16 4 3 5 17 7 31 4 13 -3 24 -4 24 -2 0 13 -39 48 -53 48 -19 0 -30
27 -15 36 23 14 71 13 101 -3 18 -9 27 -18 21 -20 -7 -2 0 -16 16 -31 36 -35
68 -54 80 -47 13 8 -17 65 -34 65 -7 0 -20 8 -29 18 -14 15 -15 23 -5 50 7 18
16 32 20 32 4 0 5 -7 2 -15 -5 -13 -2 -14 21 -5 28 11 57 -1 93 -37 19 -19 40
-16 51 6 8 15 7 20 -6 25 -9 4 -21 2 -27 -4 -16 -16 -28 -12 -21 9 3 11 -1 26
-10 35 -15 15 -15 16 5 16 12 0 36 -6 53 -14 18 -8 43 -17 57 -19 l25 -3 -30
-13 c-27 -11 -28 -13 -11 -23 11 -6 21 -7 25 -1 3 5 24 13 45 18 43 11 61 35
27 35 -12 0 -21 4 -21 9 0 21 19 19 44 -4 17 -16 22 -25 13 -25 -8 0 -17 -7
-20 -14 -4 -10 -1 -13 8 -10 8 3 21 -6 30 -20 19 -29 45 -35 45 -11 0 9 -8 28
-17 42 -10 15 -13 24 -7 20 6 -3 37 -7 68 -8 39 -2 56 -6 56 -16 0 -7 11 -13
25 -13 24 0 25 3 20 34 -7 34 10 60 24 38 6 -11 62 -9 81 3 5 3 7 12 3 20 -3
8 0 15 7 15 6 0 9 -4 5 -9 -6 -11 41 -27 110 -36 28 -4 55 -11 60 -15 12 -10
39 3 33 15 -1 5 9 12 25 16 19 5 27 4 27 -6 0 -7 -9 -15 -20 -18 -29 -8 -26
-37 5 -37 14 0 25 5 25 10 0 6 7 10 15 10 8 0 15 7 15 15 0 8 5 15 10 15 6 0
10 -7 10 -16 0 -8 5 -12 10 -9 6 3 10 1 10 -4 0 -12 52 -15 63 -5 3 4 2 15 -4
26 -7 14 -6 22 5 33 16 16 32 19 38 8 13 -30 138 -60 138 -34 0 15 -23 26 -28
13 -4 -12 -32 0 -60 26 -7 6 -22 12 -32 12 -13 0 -17 5 -14 15 8 19 28 19 44
0 7 -8 25 -15 41 -15 15 0 35 -7 43 -16 13 -12 23 -14 44 -6 21 7 33 6 47 -4
28 -21 48 -18 40 6 -5 15 0 21 20 26 20 5 33 1 53 -19 19 -18 40 -27 70 -28
23 -2 42 -7 42 -11 0 -4 10 -8 22 -8 l21 0 -22 24 c-16 17 -21 31 -16 46 5 17
9 19 21 9 11 -9 21 -9 39 -1 20 9 25 9 25 -2 0 -8 6 -16 13 -18 19 -7 37 2 37
19 0 11 9 14 34 12 19 -2 38 0 42 4 4 4 1 7 -7 7 -8 0 -22 9 -32 20 -9 11 -26
20 -38 20 -16 0 -20 5 -17 27 4 33 40 43 66 20 9 -8 28 -18 40 -22 22 -6 23
-5 12 15 -16 31 -3 37 67 33 38 -2 63 1 79 12 30 19 45 -1 15 -21 -12 -8 -21
-19 -21 -25 0 -13 34 -11 48 3 19 19 91 21 108 3 9 -8 23 -15 33 -15 9 0 22
-5 27 -10 12 -12 44 -3 44 11 0 5 -7 9 -15 9 -22 0 -65 30 -65 45 0 14 28 24
46 18 7 -2 9 -14 6 -26 -5 -20 -4 -21 12 -8 13 11 20 11 28 3 7 -7 20 -12 29
-12 26 0 33 -42 9 -62 -15 -12 -17 -19 -8 -24 6 -4 14 -2 16 4 2 7 8 10 13 7
5 -4 6 1 2 11 -5 13 -2 15 15 10 24 -8 72 2 72 15 0 5 -13 6 -29 3 -16 -3 -37
-1 -48 5 -14 8 -2 10 52 10 90 -2 283 10 315 19 14 3 45 7 70 8 25 1 86 7 135
13 50 6 142 17 205 24 63 6 120 15 125 19 6 3 48 5 95 3 49 -1 76 1 65 6 -14
5 -1 8 40 10 103 5 129 7 165 13 19 3 61 8 93 10 55 4 87 18 87 37 0 5 -12 9
-27 9 -26 1 -27 1 -8 13 11 7 21 19 23 27 8 36 17 41 40 22 l21 -19 -23 -13
c-23 -12 -23 -13 -5 -31 20 -20 34 -26 25 -10 -9 14 4 41 20 41 8 0 14 -4 14
-10 0 -5 7 -10 15 -10 26 0 16 19 -20 36 -37 17 -40 21 -26 43 8 12 12 12 26
-2 27 -27 67 -18 44 10 -9 10 -4 13 30 13 22 0 43 0 46 0 3 0 5 -3 4 -6 -1
-10 24 -24 44 -24 9 0 17 7 17 15 0 20 48 31 71 16 21 -12 49 -15 49 -4 0 4
-12 18 -27 30 l-28 23 37 -15 c21 -8 52 -15 69 -15 39 0 109 -20 109 -32 0 -4
8 -8 18 -8 13 0 14 2 3 9 -7 5 -11 13 -7 19 3 6 0 12 -6 15 -7 2 -9 8 -5 13 5
5 15 1 22 -10 19 -25 90 -15 81 12 -5 15 -5 15 8 -1 7 -9 18 -17 25 -17 6 0
11 -6 11 -14 0 -8 7 -17 16 -20 23 -9 24 -8 17 10 -10 27 45 63 95 64 24 0 41
-4 38 -9 -7 -11 72 -2 98 11 17 9 18 7 14 -21 -3 -22 0 -31 9 -31 8 0 11 5 8
10 -4 6 4 20 17 31 13 11 17 17 9 13 -9 -4 -12 -2 -9 7 3 9 15 13 31 11 18 -2
29 2 33 13 5 13 8 14 15 3 10 -17 59 -18 59 -2 0 10 18 11 70 7 40 -3 80 -2
93 4 58 27 96 34 118 23 12 -7 32 -9 47 -4 24 6 48 6 114 -1 10 0 21 -4 24 -8
4 -4 12 -7 18 -7 6 0 6 4 -2 8 -7 5 -10 16 -6 26 5 13 14 17 35 12 30 -6 51
10 22 17 -10 2 -2 2 18 0 21 -3 40 0 44 6 8 14 52 14 57 0 2 -7 12 -7 31 0 15
6 40 8 57 5 21 -5 30 -3 30 6 0 9 13 11 52 6 29 -4 57 -11 63 -16 6 -5 20 0
34 11 13 10 20 19 16 19 -4 0 -2 7 5 15 16 19 46 19 54 0 4 -10 15 -14 33 -12
21 3 29 11 35 35 9 35 28 43 28 12 0 -11 7 -20 15 -20 8 0 15 9 15 20 0 26 20
26 27 -1 4 -15 12 -19 32 -17 21 2 26 8 26 32 1 16 6 31 13 34 7 2 10 8 7 12
-3 5 9 16 27 24 35 15 56 19 228 36 58 5 114 14 125 19 11 6 54 12 95 15 90 7
142 13 193 22 l37 6 0 1349 c0 923 -3 1349 -10 1349 -7 0 -7 6 0 19 6 12 10
106 10 235 l0 216 -62 0 c-35 1 -97 3 -138 5 -194 13 -520 27 -567 26 -35 -2
-53 2 -53 10 0 7 -10 9 -25 7 -25 -5 -25 -4 -25 58 l0 62 43 7 c23 4 47 10 52
14 15 11 146 47 305 86 152 36 152 36 146 51 -3 7 2 27 10 43 12 24 22 31 44
31 16 0 39 4 52 9 13 6 59 13 103 17 l80 7 -60 13 c-54 11 -175 32 -335 55
-156 23 -440 66 -555 84 -49 8 -135 21 -190 29 -55 9 -143 22 -195 31 -52 8
-138 22 -190 30 -52 8 -138 21 -190 30 -52 8 -135 20 -185 26 -49 6 -97 13
-105 17 -8 3 -17 5 -20 4 -5 0 -157 20 -320 43 -211 30 -503 70 -607 85 -39 5
-82 12 -95 15 -13 3 -86 12 -163 21 -77 9 -189 22 -250 29 -60 8 -171 21 -245
30 -74 9 -187 23 -250 31 -63 8 -143 17 -178 21 -40 3 -66 10 -69 19 -4 10
-10 11 -25 3 -11 -6 -34 -8 -52 -5 -17 4 -94 13 -171 21 -77 8 -203 22 -280
30 -161 18 -362 38 -589 59 -87 8 -163 19 -168 24 -5 5 -28 7 -51 5 -23 -3
-118 2 -212 10 -93 9 -213 19 -265 22 -52 4 -108 9 -125 11 -16 2 -118 8 -225
14 -107 6 -242 15 -300 20 -58 6 -128 10 -157 10 -39 0 -55 4 -63 18 -8 12
-13 13 -16 5 -7 -16 -71 -16 -254 -3 -230 17 -457 31 -655 40 -431 21 -529 29
-542 47 -12 16 -14 16 -26 -1 -13 -18 -28 -18 -323 -6 -170 6 -500 15 -734 20
-234 5 -426 9 -427 9 -2 1 -3 8 -3 16 0 18 -12 19 -27 4 -14 -14 -1461 -13
-1479 2 -7 5 -15 6 -18 1z m-6546 -958 c72 -13 142 -27 293 -57 108 -22 102
-33 -19 -40 -76 -3 -121 -1 -153 9 -25 7 -80 23 -121 34 -93 27 -130 40 -130
49 0 15 25 31 40 25 8 -4 49 -13 90 -20z m16894 -231 c8 -21 -3 -32 -45 -43
-19 -5 -54 -14 -79 -20 -25 -7 -54 -15 -65 -20 -40 -16 -331 -90 -352 -90 -21
0 -23 5 -23 50 0 54 -2 52 75 64 17 2 73 12 125 21 52 9 134 22 182 29 48 7
91 15 94 19 15 15 82 7 88 -10z m0 -160 c-1 -21 -3 -43 -3 -49 -1 -15 -60 -22
-114 -14 -44 7 -119 -18 -87 -28 8 -3 25 -13 37 -22 22 -17 19 -17 -70 -13
-50 3 -108 9 -127 14 -19 5 -53 9 -75 10 l-40 0 60 24 c33 13 77 26 98 30 20
4 37 11 37 16 0 5 8 9 18 9 9 0 62 13 117 29 55 16 112 30 126 30 24 1 26 -2
23 -36z m-534 -824 c0 -433 1 -473 17 -484 16 -12 15 -13 -3 -19 -18 -5 -19
-16 -16 -226 2 -199 -3 -253 -21 -206 -3 8 -4 213 -2 455 3 273 0 443 -5 446
-6 4 -10 -12 -10 -37 0 -52 -11 -72 -36 -65 -11 3 -62 8 -114 12 -132 9 -135
10 -136 48 -5 185 -5 469 -1 473 6 7 111 7 220 0 83 -4 97 3 97 53 0 12 2 21
5 21 3 0 5 -212 5 -471z m-7835 134 c3 -9 25 -13 63 -13 85 0 92 -8 96 -112 2
-60 0 -88 -8 -89 -100 -8 -163 -4 -188 13 -20 14 -29 15 -34 6 -13 -21 -21 21
-17 93 4 96 15 119 52 116 17 -1 33 -8 36 -14z m894 -12 c12 -12 27 -17 40
-14 16 4 19 1 14 -16 -3 -12 -12 -21 -19 -21 -11 0 -14 -16 -14 -66 0 -56 -3
-67 -19 -71 -21 -5 -34 -35 -31 -71 2 -23 1 -23 -107 -20 -104 3 -108 4 -111
26 -2 13 -10 26 -18 29 -21 8 -31 -6 -14 -18 24 -15 -17 -41 -55 -35 -16 3
-84 8 -151 12 -117 6 -121 6 -127 -15 -5 -19 -11 -20 -74 -16 -37 2 -74 4 -80
4 -22 1 -14 41 10 50 12 5 25 7 30 4 9 -5 10 5 7 108 -1 70 1 89 15 103 10 9
23 15 31 12 7 -3 14 -1 16 4 2 5 73 5 158 2 l155 -7 6 -30 5 -30 8 33 c4 17
11 33 14 33 4 1 18 3 32 5 14 1 45 6 70 9 25 4 68 3 96 -2 39 -8 56 -7 70 4
22 16 20 17 43 -6z m928 -40 c8 -13 19 -17 37 -14 14 3 26 9 26 14 0 12 144
-2 152 -15 11 -17 4 -174 -8 -186 -13 -13 -134 -17 -181 -6 -22 5 -33 4 -33
-3 0 -6 9 -11 19 -11 28 0 53 -38 40 -62 -12 -22 -61 -24 -83 -3 -8 8 -22 15
-30 15 -9 0 -16 8 -16 20 0 11 7 20 15 20 8 0 15 5 15 10 0 6 -7 13 -15 16
-12 5 -15 25 -15 96 0 49 5 98 10 109 14 24 52 25 67 0z m1386 -26 c50 -6 57
-11 58 -43 0 -24 1 -25 10 -7 6 15 7 11 3 -15 -4 -19 -13 -45 -21 -57 -8 -12
-16 -47 -16 -78 -2 -53 -12 -70 -23 -40 -4 8 -13 15 -21 15 -9 0 -38 24 -65
52 l-50 53 7 55 c8 67 20 84 54 75 14 -3 43 -8 64 -10z m591 -125 c-2 -30 -3
-65 -4 -77 0 -16 -6 -23 -19 -23 -11 0 -22 3 -24 8 -6 9 -176 7 -200 -3 -10
-4 -16 -14 -13 -21 3 -9 -2 -14 -13 -14 -20 0 -31 35 -31 99 0 46 43 101 83
105 15 1 30 6 34 9 11 12 98 8 111 -5 9 -9 13 -8 17 5 4 9 13 13 21 10 8 -3
14 1 15 8 0 8 7 1 14 -16 8 -17 12 -53 9 -85z m-3527 -502 c-3 -84 -6 -154 -7
-155 -1 -10 -30 -1 -31 10 0 10 -2 10 -6 0 -10 -26 -38 -14 -40 18 -1 17 -12
38 -25 48 l-22 18 23 8 c12 4 33 4 46 1 13 -3 26 -2 29 3 7 11 -38 31 -69 31
-15 0 -25 6 -25 14 0 8 -7 16 -15 20 -18 7 -20 37 -3 54 7 7 27 12 46 12 30 0
33 2 22 15 -7 8 -27 15 -46 15 -34 0 -50 12 -39 30 3 6 43 10 87 10 l81 0 -6
-152z m-9612 -1771 c4 -9 26 -11 79 -9 65 4 77 1 95 -17 23 -23 46 -27 56 -11
7 11 52 13 108 4 27 -5 37 -11 35 -23 -2 -8 3 -16 10 -16 6 0 11 -4 10 -10 -2
-5 -17 -9 -34 -7 -18 2 -35 -1 -39 -7 -3 -6 -22 -11 -41 -11 -41 0 -37 20 4
21 23 0 24 2 7 8 -19 8 -19 8 0 19 27 16 -85 4 -139 -15 -48 -16 -56 -16 -56
0 0 24 -112 49 -124 28 -8 -12 -63 -19 -78 -10 -9 6 -9 11 1 23 11 13 11 16 0
16 -11 0 -11 2 0 13 11 10 14 10 18 0 3 -7 19 -12 36 -12 18 1 24 3 15 6 -10
2 -18 9 -18 14 0 14 50 11 55 -4z"/>
<path d="M7883 752 c-25 -2 -33 -8 -33 -23 0 -16 -9 -23 -31 -21 -3 1 -6 -25
-7 -56 -1 -35 -7 -61 -15 -67 -8 -5 -19 -20 -25 -32 -14 -25 0 -32 56 -28 46
4 46 3 32 20 -9 10 -9 15 -1 15 6 0 11 8 11 17 0 13 -3 14 -12 5 -20 -20 -38
-14 -38 12 0 15 7 26 20 29 13 3 20 14 20 31 0 15 8 30 19 36 27 14 31 13 24
-7 -6 -16 -4 -16 15 1 12 10 21 21 20 25 -2 22 5 31 29 31 14 0 24 2 22 4 -8
6 -74 12 -106 8z"/>
<path d="M4600 300 c0 -16 -33 -44 -80 -67 -25 -12 -51 -31 -58 -43 -7 -11
-19 -20 -27 -20 -8 0 -15 -7 -15 -15 0 -8 -6 -13 -12 -11 -7 1 -10 1 -5 -1 4
-3 7 -11 7 -19 0 -8 6 -11 15 -8 9 4 15 0 15 -9 0 -8 -6 -17 -12 -20 -7 -2 -9
-8 -5 -13 4 -5 11 -4 15 2 11 18 53 36 68 30 8 -3 14 -12 14 -21 0 -8 7 -15
15 -15 8 0 15 -7 15 -15 0 -17 25 -20 35 -5 3 5 0 10 -8 10 -14 0 -17 26 -4
46 10 18 -2 23 -41 18 -36 -5 -36 -5 -13 9 33 20 5 29 -32 10 -15 -8 -32 -11
-38 -7 -14 9 29 54 52 54 10 0 23 9 29 20 6 11 17 20 24 20 8 0 17 8 20 17 5
13 9 14 19 4 9 -10 8 -16 -8 -28 -19 -15 -19 -15 10 -9 17 4 37 14 45 22 13
13 12 15 -8 20 -25 7 -29 19 -7 28 22 8 18 26 -5 26 -11 0 -20 -4 -20 -10z"/>
<path d="M6085 264 c-11 -8 -31 -22 -44 -31 -13 -10 -33 -21 -45 -25 -19 -5
-18 -6 6 -7 16 -1 32 -9 38 -21 9 -16 15 -18 29 -10 13 6 38 6 73 0 29 -5 70
-8 92 -6 21 2 51 -3 67 -11 16 -8 38 -12 49 -8 24 8 27 -19 6 -47 -18 -24 -29
-23 -47 8 -16 25 -16 26 -22 5 -3 -14 0 -21 8 -21 22 0 28 -19 11 -36 -18 -17
-22 -54 -6 -54 6 0 10 5 10 10 0 6 5 10 10 10 19 0 61 33 51 40 -6 3 4 21 25
43 30 31 34 40 24 52 -7 8 -21 15 -31 15 -10 0 -21 5 -25 11 -5 8 -9 8 -14 -1
-12 -19 -71 -2 -78 23 -5 20 -5 20 -13 -1 -7 -19 -16 -22 -58 -22 -27 0 -53 5
-56 11 -4 5 -25 9 -47 7 -26 -2 -43 2 -45 10 -3 6 3 12 11 12 9 0 20 8 23 18
4 9 11 20 17 24 6 4 8 9 6 12 -3 2 -14 -2 -25 -10z"/>
<path d="M3515 240 c-3 -5 -15 -10 -26 -10 -11 0 -22 -6 -25 -14 -3 -7 -28
-24 -57 -37 -29 -13 -60 -34 -70 -47 -10 -12 -22 -20 -27 -17 -4 3 -13 -2 -20
-10 -7 -8 -30 -20 -51 -26 -32 -10 -44 -9 -76 6 -20 10 -56 20 -80 23 -23 2
-40 8 -38 13 3 4 -4 11 -15 14 -17 5 -19 10 -9 21 6 8 18 14 25 14 8 0 14 5
14 10 0 19 -17 10 -53 -30 -21 -24 -31 -42 -24 -44 7 -2 29 -9 50 -15 21 -7
57 -14 80 -16 83 -8 137 -18 137 -26 0 -5 8 -9 18 -9 10 0 22 -4 28 -8 25 -22
232 -43 219 -22 -4 6 -21 8 -40 4 -19 -3 -35 -1 -39 5 -4 6 -18 11 -31 11 -13
0 -27 5 -30 10 -3 6 -21 10 -38 10 -18 0 -39 5 -47 10 -13 8 -13 10 2 10 9 0
24 7 32 15 13 14 25 14 77 5 34 -6 63 -9 66 -6 3 2 -16 8 -41 11 -26 4 -49 12
-52 17 -13 20 -1 19 86 -7 3 -1 12 -4 20 -8 35 -14 124 -27 129 -19 3 5 13 12
21 15 12 4 11 6 -2 6 -10 1 -18 6 -18 11 0 6 -9 10 -20 10 -11 0 -20 -6 -20
-14 0 -18 -40 -10 -59 13 -8 10 -15 12 -17 5 -6 -14 -54 -5 -73 13 -15 15 -15
16 16 32 14 7 37 8 67 2 26 -5 49 -5 52 0 3 5 -7 9 -23 10 l-28 0 25 11 c21 9
22 12 8 15 -22 5 -24 23 -3 23 8 0 15 5 15 10 0 6 -6 10 -14 10 -8 0 -18 -4
-21 -10z"/>
</g>
</svg>
